<?xml version="1.0" encoding="UTF-8"?>
<svg version="1.1" xmlns="http://www.w3.org/2000/svg" width="500" height="500">
<path d="M0 0 C6.36877266 5.51029537 11.55667555 11.32122266 15.95703125 18.5234375 C16.41110352 19.26368164 16.86517578 20.00392578 17.33300781 20.76660156 C22.2846132 28.86208339 27.13705081 36.99878454 31.71582031 45.3112793 C32.98352967 47.57066451 34.29782234 49.79539427 35.6328125 52.015625 C36.06787109 52.74007812 36.50292969 53.46453125 36.95117188 54.2109375 C37.84564698 55.6951036 38.74422617 57.17680251 39.64648438 58.65625 C40.2894043 59.73132813 40.2894043 59.73132813 40.9453125 60.828125 C41.33243408 61.46733887 41.71955566 62.10655273 42.1184082 62.76513672 C42.95703125 64.5234375 42.95703125 64.5234375 42.95703125 67.5234375 C43.61703125 67.5234375 44.27703125 67.5234375 44.95703125 67.5234375 C45.99492706 69.16677254 46.98862351 70.83821816 47.95703125 72.5234375 C56.89542235 84.45534638 69.28021726 91.21178478 83.95703125 93.5234375 C96.65411828 94.23261959 106.58757733 93.47851886 117.14453125 85.73046875 C118.95703125 84.5234375 118.95703125 84.5234375 120.95703125 84.5234375 C120.95703125 83.8634375 120.95703125 83.2034375 120.95703125 82.5234375 C121.61703125 82.5234375 122.27703125 82.5234375 122.95703125 82.5234375 C123.26640625 81.9046875 123.57578125 81.2859375 123.89453125 80.6484375 C124.58203125 79.2734375 125.26953125 77.8984375 125.95703125 76.5234375 C126.61703125 76.5234375 127.27703125 76.5234375 127.95703125 76.5234375 C128.35921875 75.2240625 128.35921875 75.2240625 128.76953125 73.8984375 C129.95703125 70.5234375 129.95703125 70.5234375 131.51953125 67.9609375 C134.95963189 59.73460988 134.76578598 49.93613284 131.95703125 41.5234375 C130.76237182 38.83449345 129.47789895 36.24005642 128.078125 33.65234375 C126.95703125 31.5234375 126.95703125 31.5234375 125.95703125 28.5234375 C125.29703125 28.5234375 124.63703125 28.5234375 123.95703125 28.5234375 C122.29036458 26.85677083 120.62369792 25.19010417 118.95703125 23.5234375 C110.58975071 16.20206703 101.45709868 14.97255641 90.5703125 15.24609375 C80.32201268 16.03272001 71.84892877 20.02243212 64.94921875 27.78125 C58.0907886 37.01489405 54.45209879 47.18770155 52.95703125 58.5234375 C49.37529715 57.32952613 49.09809359 56.56875073 47.25 53.40234375 C46.49299805 52.12133789 46.49299805 52.12133789 45.72070312 50.81445312 C45.20056641 49.91404297 44.68042969 49.01363281 44.14453125 48.0859375 C43.63599609 47.22033203 43.12746094 46.35472656 42.60351562 45.46289062 C41.57178998 43.70673405 40.54823704 41.94575172 39.53271484 40.18017578 C38.46768337 38.38444096 37.3540111 36.61681519 36.19775391 34.87841797 C31.99560362 28.46895499 31.99560362 28.46895499 31.8046875 23.7890625 C33.1444314 19.99236454 34.87906179 17.41274338 37.39453125 14.2734375 C38.19761719 13.25765625 39.00070312 12.241875 39.828125 11.1953125 C40.53066406 10.31359375 41.23320312 9.431875 41.95703125 8.5234375 C42.94703125 7.0384375 42.94703125 7.0384375 43.95703125 5.5234375 C44.61703125 5.5234375 45.27703125 5.5234375 45.95703125 5.5234375 C45.95703125 4.8634375 45.95703125 4.2034375 45.95703125 3.5234375 C49.41856971 0.5234375 49.41856971 0.5234375 51.95703125 0.5234375 C51.95703125 -0.1365625 51.95703125 -0.7965625 51.95703125 -1.4765625 C69.38829597 -14.27981258 89.06101684 -17.51215891 110.23046875 -14.3203125 C116.78135482 -12.83709301 122.83777548 -10.20194532 128.95703125 -7.4765625 C128.95703125 -6.8165625 128.95703125 -6.1565625 128.95703125 -5.4765625 C129.5190625 -5.38375 130.08109375 -5.2909375 130.66015625 -5.1953125 C141.80902976 -1.70654936 151.3179309 11.83962529 156.95703125 21.5234375 C165.2793424 37.53841126 166.60744913 58.2732849 161.26953125 75.4609375 C157.91204407 84.84039457 152.93125156 92.80893585 147.06982422 100.80859375 C142.78484905 106.66904505 138.81577468 112.72711407 134.89208984 118.83422852 C134.40820801 119.57471436 133.92432617 120.3152002 133.42578125 121.078125 C132.99716797 121.74312012 132.56855469 122.40811523 132.12695312 123.09326172 C131.74087891 123.56521973 131.35480469 124.03717773 130.95703125 124.5234375 C130.29703125 124.5234375 129.63703125 124.5234375 128.95703125 124.5234375 C128.64958984 125.49216797 128.64958984 125.49216797 128.3359375 126.48046875 C126.38725134 130.78082716 123.65896336 134.39893111 120.89453125 138.2109375 C119.79836484 139.73487617 118.70326027 141.25957935 117.609375 142.78515625 C117.12460693 143.45506592 116.63983887 144.12497559 116.14038086 144.81518555 C114.89970409 146.52000777 114.89970409 146.52000777 113.95703125 148.5234375 C113.29703125 148.5234375 112.63703125 148.5234375 111.95703125 148.5234375 C111.68890625 149.2659375 111.42078125 150.0084375 111.14453125 150.7734375 C109.13666037 155.42324376 109.13666037 155.42324376 106.95703125 157.5234375 C104.17130771 157.87942828 101.78666534 157.99054554 99.0078125 157.9140625 C98.23519577 157.90840271 97.46257904 157.90274292 96.66654968 157.89691162 C94.20024496 157.87453077 91.73539633 157.82433453 89.26953125 157.7734375 C87.5970262 157.75337456 85.92449836 157.73512342 84.25195312 157.71875 C80.15308529 157.67466081 76.05530508 157.60562425 71.95703125 157.5234375 C71.95703125 153.20612471 74.40928339 150.66311164 76.83203125 147.2734375 C77.83694468 145.8418523 78.84082527 144.40954162 79.84375 142.9765625 C80.35856934 142.24373047 80.87338867 141.51089844 81.40380859 140.75585938 C83.86899874 137.21268133 86.25896365 133.62051461 88.64453125 130.0234375 C89.07813965 129.37084961 89.51174805 128.71826172 89.95849609 128.04589844 C90.95907313 126.53911834 91.95822713 125.0313934 92.95703125 123.5234375 C92.34859375 123.55824219 91.74015625 123.59304687 91.11328125 123.62890625 C75.98195212 124.0961973 63.37577671 120.05468529 49.95703125 113.5234375 C49.03921875 113.08 48.12140625 112.6365625 47.17578125 112.1796875 C45.42499925 111.31662595 43.68824412 110.42511087 41.95703125 109.5234375 C41.95703125 108.8634375 41.95703125 108.2034375 41.95703125 107.5234375 C40.30703125 106.8634375 38.65703125 106.2034375 36.95703125 105.5234375 C36.95703125 104.8634375 36.95703125 104.2034375 36.95703125 103.5234375 C36.29703125 103.5234375 35.63703125 103.5234375 34.95703125 103.5234375 C34.95703125 102.8634375 34.95703125 102.2034375 34.95703125 101.5234375 C34.29703125 101.5234375 33.63703125 101.5234375 32.95703125 101.5234375 C32.95703125 100.8634375 32.95703125 100.2034375 32.95703125 99.5234375 C32.29703125 99.5234375 31.63703125 99.5234375 30.95703125 99.5234375 C30.95703125 98.8634375 30.95703125 98.2034375 30.95703125 97.5234375 C29.96703125 97.1934375 28.97703125 96.8634375 27.95703125 96.5234375 C27.95703125 95.8634375 27.95703125 95.2034375 27.95703125 94.5234375 C27.29703125 94.5234375 26.63703125 94.5234375 25.95703125 94.5234375 C21.95703125 89.11167279 21.95703125 89.11167279 21.95703125 86.5234375 C21.29703125 86.5234375 20.63703125 86.5234375 19.95703125 86.5234375 C19.39435547 85.48896484 19.39435547 85.48896484 18.8203125 84.43359375 C18.30855469 83.49386719 17.79679688 82.55414063 17.26953125 81.5859375 C16.72683594 80.58820313 16.18414062 79.59046875 15.625 78.5625 C13.7353265 75.11948833 11.79767555 71.70543843 9.83984375 68.30078125 C8.95703125 66.5234375 8.95703125 66.5234375 8.95703125 64.5234375 C8.29703125 64.5234375 7.63703125 64.5234375 6.95703125 64.5234375 C6.62832031 63.915 6.29960937 63.3065625 5.9609375 62.6796875 C4.30201859 59.62260116 2.6295427 56.57310931 0.95703125 53.5234375 C0.61430176 52.89179688 0.27157227 52.26015625 -0.08154297 51.609375 C-12.360962 28.92031456 -12.360962 28.92031456 -33.83203125 15.93359375 C-45.07180698 13.84847634 -55.95188005 15.23806555 -65.66796875 21.2109375 C-74.15733446 27.19645887 -80.80278468 35.59597495 -82.71875 45.94921875 C-84.25829268 58.17281668 -82.29794306 67.69416637 -75.23046875 77.8984375 C-69.21804818 85.29126075 -60.46846636 90.75718838 -51.04296875 92.5234375 C-38.92099809 93.43096472 -27.14141586 92.94430646 -17.35546875 84.7109375 C-16.21078125 83.628125 -16.21078125 83.628125 -15.04296875 82.5234375 C-14.38296875 82.5234375 -13.72296875 82.5234375 -13.04296875 82.5234375 C-13.04296875 81.8634375 -13.04296875 81.2034375 -13.04296875 80.5234375 C-12.38296875 80.5234375 -11.72296875 80.5234375 -11.04296875 80.5234375 C-10.76710938 79.96140625 -10.49125 79.399375 -10.20703125 78.8203125 C-8.99928847 76.43724956 -7.72120066 74.1055367 -6.41796875 71.7734375 C-5.97195312 70.97421875 -5.5259375 70.175 -5.06640625 69.3515625 C-4.55980469 68.44664062 -4.55980469 68.44664062 -4.04296875 67.5234375 C-3.05296875 67.5234375 -2.06296875 67.5234375 -1.04296875 67.5234375 C0.78125 70.04296875 0.78125 70.04296875 2.64453125 73.3359375 C3.26714844 74.41488281 3.88976562 75.49382812 4.53125 76.60546875 C5.95703125 79.5234375 5.95703125 79.5234375 5.95703125 82.5234375 C6.61703125 82.5234375 7.27703125 82.5234375 7.95703125 82.5234375 C12.84319349 91.31416688 12.84319349 91.31416688 11.95703125 95.5234375 C10.08203125 98.8359375 10.08203125 98.8359375 7.95703125 101.5234375 C7.29703125 101.5234375 6.63703125 101.5234375 5.95703125 101.5234375 C5.29703125 103.5034375 4.63703125 105.4834375 3.95703125 107.5234375 C3.29703125 107.5234375 2.63703125 107.5234375 1.95703125 107.5234375 C1.54735107 108.62921143 1.54735107 108.62921143 1.12939453 109.75732422 C0.02464689 112.36390288 -1.19691931 114.45861833 -2.80078125 116.78125 C-3.33977051 117.5659668 -3.87875977 118.35068359 -4.43408203 119.15917969 C-5.00626465 119.98063477 -5.57844727 120.80208984 -6.16796875 121.6484375 C-6.75690918 122.50083008 -7.34584961 123.35322266 -7.95263672 124.23144531 C-15.74305118 135.47309254 -15.74305118 135.47309254 -19.125 139.74609375 C-20.73148857 142.0723939 -21.68005443 143.94814621 -22.7421875 146.51953125 C-25.02383083 151.34778656 -27.12551958 155.0822029 -32.04296875 157.5234375 C-43.54350078 159.46549496 -55.47172115 158.42998362 -67.04296875 157.5234375 C-66.44459239 154.58262682 -65.57780948 152.53992918 -63.85546875 150.08984375 C-63.18414917 149.12498047 -63.18414917 149.12498047 -62.49926758 148.140625 C-61.77839966 147.12355469 -61.77839966 147.12355469 -61.04296875 146.0859375 C-60.55401123 145.38597656 -60.06505371 144.68601562 -59.5612793 143.96484375 C-58.55405537 142.52329429 -57.54451846 141.08335827 -56.53271484 139.64501953 C-54.2892491 136.45004783 -52.07351557 133.2360775 -49.85546875 130.0234375 C-48.5849087 128.18991476 -47.31418753 126.35650359 -46.04296875 124.5234375 C-47.6053125 124.32041016 -47.6053125 124.32041016 -49.19921875 124.11328125 C-62.93172257 122.12727541 -75.71193541 117.78564931 -87.04296875 109.5234375 C-87.04296875 108.8634375 -87.04296875 108.2034375 -87.04296875 107.5234375 C-87.60242188 107.2965625 -88.161875 107.0696875 -88.73828125 106.8359375 C-100.32041785 100.24000886 -108.07768923 84.98944435 -111.5847168 72.61132812 C-113.13306439 66.43724898 -113.37650699 60.49356948 -113.35546875 54.1484375 C-113.37158203 53.18421875 -113.38769531 52.22 -113.40429688 51.2265625 C-113.41654057 32.95897502 -105.19984228 16.77720072 -92.66796875 3.8359375 C-89.33555392 0.5234375 -89.33555392 0.5234375 -87.04296875 0.5234375 C-87.04296875 -0.1365625 -87.04296875 -0.7965625 -87.04296875 -1.4765625 C-63.25522413 -22.87908611 -23.49506877 -19.12178896 0 0 Z " fill="#017BFA" transform="translate(224.04296875,124.4765625)"/>
<path d="M0 0 C3.63 0 7.26 0 11 0 C11.33 0.99 11.66 1.98 12 3 C12.52722656 2.5153125 13.05445313 2.030625 13.59765625 1.53125 C18.18159689 -1.39054631 23.7715618 -0.74124693 29 0 C31.50832311 1.43903796 32.35428223 2.5618996 34 5 C35.051875 3.7625 35.051875 3.7625 36.125 2.5 C40.40228918 -1.06099674 45.2281443 -0.69560092 50.5625 -0.859375 C54.56699993 0.14174998 56.38482464 1.08298487 58.88378906 4.34326172 C61.54213908 10.67050688 60.58819275 18.19377091 60.375 24.9375 C60.34487269 26.59174852 60.31750173 28.24604968 60.29296875 29.90039062 C60.22716553 33.93490202 60.12380332 37.96686868 60 42 C56.37 42 52.74 42 49 42 C48.98541748 41.13197754 48.97083496 40.26395508 48.95581055 39.36962891 C48.89479889 36.15261121 48.82065609 32.93624337 48.73754883 29.71972656 C48.70427127 28.32693911 48.67624803 26.93401589 48.65356445 25.54101562 C48.62007311 23.54008622 48.56618695 21.53953079 48.51171875 19.5390625 C48.48553467 18.33459473 48.45935059 17.13012695 48.43237305 15.88916016 C48.21834839 14.45902588 48.21834839 14.45902588 48 13 C44.77856724 10.85237816 43.7404533 10.438932 40 11 C36.79719097 14.21388142 36.5927896 16.86572113 36.48828125 21.296875 C36.45283203 22.50214844 36.41738281 23.70742188 36.38085938 24.94921875 C36.35830078 26.20347656 36.33574219 27.45773437 36.3125 28.75 C36.27833984 30.01972656 36.24417969 31.28945313 36.20898438 32.59765625 C36.12650999 35.73168274 36.05735516 38.86542955 36 42 C32.37 42 28.74 42 25 42 C24.67 32.1 24.34 22.2 24 12 C21.03 11.67 18.06 11.34 15 11 C12.20822431 13.79177569 12.68786516 15.63183572 12.5859375 19.5390625 C12.54726563 20.84101563 12.50859375 22.14296875 12.46875 23.484375 C12.43729237 24.86457862 12.40604509 26.24478704 12.375 27.625 C12.33682066 29.01304541 12.29776895 30.40106711 12.2578125 31.7890625 C12.16327057 35.19257185 12.07772103 38.59607165 12 42 C8.04 42 4.08 42 0 42 C0 28.14 0 14.28 0 0 Z " fill="#0F87CE" transform="translate(330,322)"/>
<path d="M0 0 C1.22589844 -0.01675781 2.45179688 -0.03351563 3.71484375 -0.05078125 C7.20696505 0.32817707 8.55701713 0.93260525 11.0625 3.3125 C11.3925 2.3225 11.7225 1.3325 12.0625 0.3125 C15.6925 0.3125 19.3225 0.3125 23.0625 0.3125 C23.13688177 6.59299148 23.19121203 12.87322421 23.22729492 19.15405273 C23.24234362 21.28886382 23.26278736 23.42364419 23.28881836 25.55834961 C23.32537386 28.63402914 23.3422659 31.70929844 23.35546875 34.78515625 C23.37095261 35.73334732 23.38643646 36.68153839 23.40238953 37.65846252 C23.40397441 43.95625484 22.76823037 49.01535315 18.6328125 54.0546875 C12.16140911 59.12686854 5.01694375 58.9283279 -2.9375 58.3125 C-5.81987146 57.55560246 -8.21860296 56.56737556 -10.9375 55.3125 C-10.9375 54.6525 -10.9375 53.9925 -10.9375 53.3125 C-11.5975 53.3125 -12.2575 53.3125 -12.9375 53.3125 C-14.97919485 50.40701118 -15.9375 48.91107954 -15.9375 45.3125 C-11.9775 45.3125 -8.0175 45.3125 -3.9375 45.3125 C-3.9375 45.9725 -3.9375 46.6325 -3.9375 47.3125 C-1.26106043 48.20464652 0.31634378 48.44790211 3.0625 48.4375 C4.0834375 48.44136719 4.0834375 48.44136719 5.125 48.4453125 C7.28124781 48.37881126 7.28124781 48.37881126 10.0625 47.3125 C10.3925 44.6725 10.7225 42.0325 11.0625 39.3125 C10.051875 39.8075 9.04125 40.3025 8 40.8125 C2.84771841 42.98952039 -1.21499201 42.84707145 -6.5625 41.1875 C-11.28305614 38.56496881 -13.91505595 35.5107547 -16.1875 30.625 C-18.18842427 21.78758446 -18.77052045 15.26617936 -13.9375 7.3125 C-9.87098123 1.52079145 -7.06819887 0.02225036 0 0 Z M-2.25 12 C-4.82566253 15.52961162 -6.02677748 17.88406038 -5.75 22.3125 C-4.63349228 26.43499003 -2.94892851 29.30107149 0.0625 32.3125 C3.08844644 32.2644691 5.24129842 32.19701607 8.0625 31.3125 C11.26159712 27.80381283 11.90143856 23.98328171 12.0625 19.3125 C11.06901124 15.77453643 9.68934316 12.93934316 7.0625 10.3125 C3.18441063 9.88160118 0.96019286 9.65742683 -2.25 12 Z " fill="#036EF4" transform="translate(192.9375,321.6875)"/>
<path d="M0 0 C4.434375 -0.0825 8.86875 -0.165 13.4375 -0.25 C15.50729126 -0.30462402 15.50729126 -0.30462402 17.61889648 -0.36035156 C24.99191041 -0.42644379 30.6009986 0.19513039 37 4 C37 4.66 37 5.32 37 6 C37.66 6 38.32 6 39 6 C39 6.66 39 7.32 39 8 C39.66 8 40.32 8 41 8 C45.13886512 14.94261246 46.19774951 19.77245567 46.25 27.8125 C46.270625 28.59431641 46.29125 29.37613281 46.3125 30.18164062 C46.35838548 37.0472549 44.7381382 41.46728433 40.8125 47.1875 C36.45320574 51.54679426 31.93338591 53.51665352 26 55 C17.42 55 8.84 55 0 55 C0 36.85 0 18.7 0 0 Z M11 10 C11 21.55 11 33.1 11 45 C23.23705289 45.49614427 23.23705289 45.49614427 31.8125 39.4375 C35.33942713 34.85249473 35.33766893 29.35299326 34.77734375 23.7890625 C33.74765705 18.57065029 31.79393709 15.54100795 28 12 C22.02093269 9.4207945 17.93162796 10 11 10 Z " fill="#035DF0" transform="translate(107,309)"/>
<path d="M0 0 C1.02867187 -0.02320313 1.02867187 -0.02320313 2.078125 -0.046875 C7.18322864 -0.00790474 10.06507669 1.3334345 14 4.5 C19.58263613 10.70292903 21.0875976 16.22202698 21 24.5 C19.8898137 31.05009915 17.9102573 36.6923982 12.3515625 40.68359375 C6.78623815 43.96599933 1.33664368 44.40523481 -5 43.5 C-10.92797305 41.71156067 -14.55855355 38.56095066 -18 33.5 C-21.04308687 27.26891736 -20.75569706 19.837662 -19.25 13.1875 C-15.09781486 4.26030194 -10.07760727 -0.22731445 0 0 Z M-7 13.5 C-9.21762515 17.49172528 -9.32212309 20.99027669 -9 25.5 C-8.1025173 28.33378132 -8.1025173 28.33378132 -7 30.5 C-6.34 30.5 -5.68 30.5 -5 30.5 C-5 31.16 -5 31.82 -5 32.5 C-1.01277883 33.3878083 -1.01277883 33.3878083 3 33.5 C5.98119541 31.27023837 5.98119541 31.27023837 8 28.5 C8.33 28.17 8.66 27.84 9 27.5 C9.12562235 25.73252271 9.17576558 23.95939708 9.1875 22.1875 C9.20167969 21.22199219 9.21585937 20.25648438 9.23046875 19.26171875 C8.99350011 16.42211146 8.56687552 14.85812162 7 12.5 C2.23745771 9.3249718 -2.94413634 9.14370199 -7 13.5 Z " fill="#0584ED" transform="translate(304,321.5)"/>
<path d="M0 0 C0.7425 -0.02449219 1.485 -0.04898437 2.25 -0.07421875 C7.48547111 -0.1019686 10.53660877 0.83131958 14.625 4.375 C16.0859375 6.62890625 16.0859375 6.62890625 17 8.9375 C17.31710937 9.70191406 17.63421875 10.46632813 17.9609375 11.25390625 C18.625 13.375 18.625 13.375 18.625 16.375 C14.91629111 16.66274466 11.32359112 16.83194803 7.625 16.375 C5.375 13.875 5.375 13.875 3.625 11.375 C0.08249949 10.70823122 0.08249949 10.70823122 -3.375 11.375 C-5.18976003 12.77085785 -5.18976003 12.77085785 -6.375 14.375 C-7.035 14.375 -7.695 14.375 -8.375 14.375 C-8.59034815 20.51242235 -8.18572717 25.75354566 -5.375 31.375 C-1.382242 32.37805629 -1.382242 32.37805629 2.625 32.375 C3.388125 31.570625 4.15125 30.76625 4.9375 29.9375 C8.16157 26.86338675 9.12637426 27.02950669 13.4375 27.0625 C15.16795278 27.14250772 16.89805325 27.23890087 18.625 27.375 C18.11440315 31.76613287 17.32406178 34.83829835 14.625 38.375 C8.01358658 43.33356007 2.70469389 44.03985626 -5.375 43.375 C-7.97339496 42.62537455 -9.96595995 41.65640428 -12.375 40.375 C-13.035 40.045 -13.695 39.715 -14.375 39.375 C-14.375 38.715 -14.375 38.055 -14.375 37.375 C-15.035 37.375 -15.695 37.375 -16.375 37.375 C-21.35710659 29.90184011 -21.56211956 22.04271855 -20.375 13.375 C-18.89065719 9.8587367 -17.17729373 6.98853819 -14.375 4.375 C-13.715 4.375 -13.055 4.375 -12.375 4.375 C-12.375 3.715 -12.375 3.055 -12.375 2.375 C-8.51883144 -0.17537603 -4.45867402 0.00766095 0 0 Z " fill="#077CF0" transform="translate(260.375,321.625)"/>
<path d="M0 0 C3.63 0 7.26 0 11 0 C11.07438177 6.28049148 11.12871203 12.56072421 11.16479492 18.84155273 C11.17984362 20.97636382 11.20028736 23.11114419 11.22631836 25.24584961 C11.26287386 28.32152914 11.2797659 31.39679844 11.29296875 34.47265625 C11.30845261 35.42084732 11.32393646 36.36903839 11.33988953 37.34596252 C11.34151629 43.81018803 10.46785095 48.47449864 6.6875 53.875 C2.48899066 56.67400623 -3.32737868 56.13541827 -8.1875 56.125 C-9.39792969 56.12757813 -10.60835937 56.13015625 -11.85546875 56.1328125 C-15 56 -15 56 -18 55 C-17.3671875 53.0390625 -17.3671875 53.0390625 -16 51 C-13.3203125 50.4609375 -13.3203125 50.4609375 -10.125 50.375 C-4.75203819 50.24962307 -4.75203819 50.24962307 0 48 C0.96070434 45.11788698 1.10581883 43.30149956 1.0625 40.3125 C1.05347656 39.50425781 1.04445312 38.69601562 1.03515625 37.86328125 C1.02355469 37.24839844 1.01195312 36.63351562 1 36 C0.34 36 -0.32 36 -1 36 C-1.33 35.34 -1.66 34.68 -2 34 C-2.66 34.66 -3.32 35.32 -4 36 C-6.625 35.625 -6.625 35.625 -9 35 C-9 35.99 -9 36.98 -9 38 C-9.66 38 -10.32 38 -11 38 C-10.9375 36.1875 -10.9375 36.1875 -10 34 C-8.88625 33.525625 -7.7725 33.05125 -6.625 32.5625 C-2.98896233 31.29971724 -2.98896233 31.29971724 -1.0625 28.8125 C0.39058642 24.96609478 0.26928623 22.10661505 0 18 C-0.33 17.34 -0.66 16.68 -1 16 C-1.04022391 13.6670134 -1.04320247 11.33293334 -1 9 C-2.03640625 8.93941406 -3.0728125 8.87882812 -4.140625 8.81640625 C-5.51042873 8.73196629 -6.88021975 8.64732003 -8.25 8.5625 C-8.93191406 8.52318359 -9.61382812 8.48386719 -10.31640625 8.44335938 C-13.64448041 8.23333528 -16.80255402 7.98065998 -20 7 C-18.125 3.125 -18.125 3.125 -17 2 C-14.91503394 2.01177947 -12.83029847 2.11006961 -10.75 2.25 C-9.04070312 2.35054688 -9.04070312 2.35054688 -7.296875 2.453125 C-3.8602672 3.02317843 -1.83137756 4.02016457 1 6 C0.67 4.02 0.34 2.04 0 0 Z " fill="#0372F5" transform="translate(205,322)"/>
<path d="M0 0 C9.24 0 18.48 0 28 0 C28 0.33 28 0.66 28 1 C19.09 1 10.18 1 1 1 C1 18.49 1 35.98 1 54 C8.26 54 15.52 54 23 54 C23 53.34 23 52.68 23 52 C23.61488281 51.93941406 24.22976562 51.87882812 24.86328125 51.81640625 C25.67152344 51.73261719 26.47976562 51.64882813 27.3125 51.5625 C28.11300781 51.48128906 28.91351563 51.40007812 29.73828125 51.31640625 C32.16087179 51.04734307 32.16087179 51.04734307 35 50 C35 47.69 35 45.38 35 43 C31.50765756 42.90021879 28.40562852 43.22157062 25 44 C25.763125 43.4225 26.52625 42.845 27.3125 42.25 C31.27541554 38.93221025 33.32250942 36.46549294 33.8125 31.25 C34.34861013 23.65510652 32.55548486 18.07397982 28 12 C30.4375 12.75 30.4375 12.75 33 14 C33.8125 16.125 33.8125 16.125 34 18 C34.99 17.67 35.98 17.34 37 17 C37.73323796 14.98491642 37.73323796 14.98491642 38 13 C38.99 13.33 39.98 13.66 41 14 C41.33 13.34 41.66 12.68 42 12 C41.34 12 40.68 12 40 12 C40.33 10.68 40.66 9.36 41 8 C45.13886512 14.94261246 46.19774951 19.77245567 46.25 27.8125 C46.270625 28.59431641 46.29125 29.37613281 46.3125 30.18164062 C46.35838548 37.0472549 44.7381382 41.46728433 40.8125 47.1875 C36.45320574 51.54679426 31.93338591 53.51665352 26 55 C17.42 55 8.84 55 0 55 C0 36.85 0 18.7 0 0 Z " fill="#0563EE" transform="translate(107,309)"/>
<path d="M0 0 C1.65 0 3.3 0 5 0 C5 0.66 5 1.32 5 2 C5.66 2 6.32 2 7 2 C6.96519531 3.35544922 6.96519531 3.35544922 6.9296875 4.73828125 C6.91164062 5.91777344 6.89359375 7.09726562 6.875 8.3125 C6.85179687 9.48425781 6.82859375 10.65601563 6.8046875 11.86328125 C6.74679382 15.16393661 6.74679382 15.16393661 9 18 C13.18549559 20.39171176 16.38964842 20.19527634 21 19 C21.67095703 17.99066406 21.67095703 17.99066406 22.35546875 16.9609375 C24 15 24 15 26.69921875 14.609375 C28.17841797 14.67898438 28.17841797 14.67898438 29.6875 14.75 C30.68136719 14.78609375 31.67523438 14.8221875 32.69921875 14.859375 C33.45847656 14.90578125 34.21773438 14.9521875 35 15 C34.48940315 19.39113287 33.69906178 22.46329835 31 26 C24.35761074 30.98179194 19.1027356 31.61110017 11 31 C6.7983594 30.10828491 4.48480201 28.73502241 2.0625 25.0625 C1 22 1 22 1 18 C0.01 17.67 -0.98 17.34 -2 17 C-2.08090971 15.37581255 -2.13914995 13.75048255 -2.1875 12.125 C-2.22230469 11.22007812 -2.25710937 10.31515625 -2.29296875 9.3828125 C-2.19628906 8.59648437 -2.09960938 7.81015625 -2 7 C-1.01 6.34 -0.02 5.68 1 5 C0.67 3.35 0.34 1.7 0 0 Z " fill="#097DEA" transform="translate(244,334)"/>
<path d="M0 0 C3.63 0 7.26 0 11 0 C12.69196504 3.38393008 12.11986549 7.22477791 12.09765625 10.9453125 C12.0962413 11.8303244 12.09482635 12.7153363 12.09336853 13.62716675 C12.0877614 16.45981191 12.07520771 19.29237864 12.0625 22.125 C12.05748592 24.04296761 12.05292285 25.96093646 12.04882812 27.87890625 C12.03778966 32.58596782 12.02052025 37.2929706 12 42 C8.04 42 4.08 42 0 42 C0 28.14 0 14.28 0 0 Z " fill="#0376F4" transform="translate(223,322)"/>
<path d="M0 0 C3.63 0 7.26 0 11 0 C11 13.86 11 27.72 11 42 C7.37 42 3.74 42 0 42 C0 28.14 0 14.28 0 0 Z " fill="#0564E0" transform="translate(159,322)"/>
<path d="M0 0 C0.33 0.99 0.66 1.98 1 3 C-0.32 3 -1.64 3 -3 3 C-2.67 3.99 -2.34 4.98 -2 6 C-6.29 6.66 -10.58 7.32 -15 8 C-14.67 9.32 -14.34 10.64 -14 12 C-13.91879767 14.0976396 -13.89244192 16.19768762 -13.90234375 18.296875 C-13.90556641 19.50214844 -13.90878906 20.70742188 -13.91210938 21.94921875 C-13.92048828 23.20347656 -13.92886719 24.45773437 -13.9375 25.75 C-13.94201172 27.01972656 -13.94652344 28.28945313 -13.95117188 29.59765625 C-13.96295444 32.73181836 -13.97940584 35.86588541 -14 39 C-16.64 39 -19.28 39 -22 39 C-22 26.13 -22 13.26 -22 0 C-19.69 0 -17.38 0 -15 0 C-14.67 0.66 -14.34 1.32 -14 2 C-11.47266765 2.65555119 -11.47266765 2.65555119 -9 3 C-8.67 2.01 -8.34 1.02 -8 0 C-5.13822943 -1.43088528 -3.06624227 -0.59991697 0 0 Z " fill="#0394F9" transform="translate(354,324)"/>
<path d="M0 0 C0 1.32 0 2.64 0 4 C1.32 4.66 2.64 5.32 4 6 C4 16.56 4 27.12 4 38 C1.36 38 -1.28 38 -4 38 C-4.33 27.77 -4.66 17.54 -5 7 C-11.48921548 6.28377171 -11.48921548 6.28377171 -18 6 C-17.67 5.01 -17.34 4.02 -17 3 C-16.34 3 -15.68 3 -15 3 C-14.67 1.68 -14.34 0.36 -14 -1 C-9.2685331 -2.70332808 -4.64120974 -1.54706991 0 0 Z " fill="#02A1F9" transform="translate(385,325)"/>
<path d="M0 0 C2.97 0.495 2.97 0.495 6 1 C8.7140383 8.34386835 8.50208654 15.245894 5.25 22.4375 C3.38779804 25.75853887 1.67237812 27.65644703 -2 29 C-4.8125 28.6875 -4.8125 28.6875 -7 28 C-7 28.66 -7 29.32 -7 30 C-10.96 30 -14.92 30 -19 30 C-19.33 28.68 -19.66 27.36 -20 26 C-20.66 26.33 -21.32 26.66 -22 27 C-24.125 26.5625 -24.125 26.5625 -26 26 C-26 25.34 -26 24.68 -26 24 C-26.66 23.67 -27.32 23.34 -28 23 C-20.84064361 21.4658522 -14.9302261 23.20770015 -8 25 C-7.67 24.34 -7.34 23.68 -7 23 C-6.34 22.236875 -5.68 21.47375 -5 20.6875 C-2.14580251 16.54994033 -2.4211077 11.896554 -2.2734375 7.0234375 C-2.01116952 4.123503 -1.49800843 2.45673383 0 0 Z " fill="#038BF2" transform="translate(317,333)"/>
<path d="M0 0 C0.33 0.99 0.66 1.98 1 3 C0.67 3.66 0.34 4.32 0 5 C-0.66 5 -1.32 5 -2 5 C-2.33 9.62 -2.66 14.24 -3 19 C-2.34 19.33 -1.68 19.66 -1 20 C-1.33 22.64 -1.66 25.28 -2 28 C-1.34 28 -0.68 28 0 28 C0.33 29.32 0.66 30.64 1 32 C2.2065625 32.185625 2.2065625 32.185625 3.4375 32.375 C4.283125 32.58125 5.12875 32.7875 6 33 C6.33 33.66 6.66 34.32 7 35 C11.29 35 15.58 35 20 35 C20.33 33.02 20.66 31.04 21 29 C21.66 29.33 22.32 29.66 23 30 C23 30.66 23 31.32 23 32 C23.66 32 24.32 32 25 32 C26.79009505 35.58019011 26.46638897 39.56196733 25.25 43.3125 C23.66671785 45.4499309 22.4734912 46.01060352 20 47 C16.88974144 47.3258759 13.80414096 47.44018537 10.6796875 47.55859375 C9.79539063 47.70425781 8.91109375 47.84992188 8 48 C7.34 48.99 6.68 49.98 6 51 C12.93 51 19.86 51 27 51 C26.505 51.99 26.505 51.99 26 53 C17.49982944 55.35528705 8.92987146 54.65994067 1 51 C1 50.34 1 49.68 1 49 C0.34 49 -0.32 49 -1 49 C-3.04169485 46.09451118 -4 44.59857954 -4 41 C-0.04 41 3.92 41 8 41 C8 41.66 8 42.32 8 43 C10.67643957 43.89214652 12.25384378 44.13540211 15 44.125 C16.0209375 44.12886719 16.0209375 44.12886719 17.0625 44.1328125 C19.21874781 44.06631126 19.21874781 44.06631126 22 43 C22.33 40.36 22.66 37.72 23 35 C21.989375 35.495 20.97875 35.99 19.9375 36.5 C14.78521841 38.67702039 10.72250799 38.53457145 5.375 36.875 C0.65444386 34.25246881 -1.97755595 31.1982547 -4.25 26.3125 C-6.2617051 17.42746914 -6.73737633 11.03512593 -2 3 C-1.34 2.01 -0.68 1.02 0 0 Z " fill="#1363C3" transform="translate(181,326)"/>
<path d="M0 0 C25.18904792 -1.23833716 25.18904792 -1.23833716 34 6 C34 7.32 34 8.64 34 10 C34.66 10 35.32 10 36 10 C36 11.98 36 13.96 36 16 C35.71125 15.360625 35.4225 14.72125 35.125 14.0625 C34.17176549 11.84793921 34.17176549 11.84793921 32 11 C31.67 12.65 31.34 14.3 31 16 C30.01 16 29.02 16 28 16 C27.938125 15.38125 27.87625 14.7625 27.8125 14.125 C27.19772624 11.7997142 27.19772624 11.7997142 24.875 10.9375 C23.92625 10.628125 22.9775 10.31875 22 10 C20.989375 9.484375 19.97875 8.96875 18.9375 8.4375 C13.90933115 6.22510571 8.41493708 6.25785415 3 6 C2.67 5.01 2.34 4.02 2 3 C1.34 2.01 0.68 1.02 0 0 Z " fill="#0261F6" transform="translate(113,311)"/>
<path d="M0 0 C0.99 0.99 1.98 1.98 3 3 C2.67 3.99 2.34 4.98 2 6 C1.84970012 8.06362991 1.75155552 10.13123915 1.68359375 12.19921875 C1.64169922 13.40771484 1.59980469 14.61621094 1.55664062 15.86132812 C1.51732422 17.12396484 1.47800781 18.38660156 1.4375 19.6875 C1.39431641 20.96173828 1.35113281 22.23597656 1.30664062 23.54882812 C1.2004514 26.69910852 1.09840467 29.84946839 1 33 C-1.64 33 -4.28 33 -7 33 C-7.07407906 28.76419747 -7.12856696 24.52873659 -7.16479492 20.29248047 C-7.17989483 18.85100742 -7.20037658 17.40958041 -7.22631836 15.96826172 C-7.2626513 13.89799657 -7.27971329 11.82833793 -7.29296875 9.7578125 C-7.31653442 7.88826904 -7.31653442 7.88826904 -7.34057617 5.98095703 C-7.22818604 4.99724121 -7.1157959 4.01352539 -7 3 C-6.01 2.34 -5.02 1.68 -4 1 C-3.01 1.33 -2.02 1.66 -1 2 C-0.67 1.34 -0.34 0.68 0 0 Z " fill="#049BF9" transform="translate(363,330)"/>
<path d="M0 0 C9.24 0 18.48 0 28 0 C28 0.33 28 0.66 28 1 C19.09 1 10.18 1 1 1 C1 18.49 1 35.98 1 54 C8.26 54 15.52 54 23 54 C23 53.34 23 52.68 23 52 C23.61488281 51.93941406 24.22976562 51.87882812 24.86328125 51.81640625 C25.67152344 51.73261719 26.47976562 51.64882813 27.3125 51.5625 C28.11300781 51.48128906 28.91351563 51.40007812 29.73828125 51.31640625 C32.16087179 51.04734307 32.16087179 51.04734307 35 50 C35 48.02 35 46.04 35 44 C38 43 38 43 41 44 C41.185625 42.2984375 41.185625 42.2984375 41.375 40.5625 C41.58125 39.386875 41.7875 38.21125 42 37 C42.66 36.67 43.32 36.34 44 36 C44 29.07 44 22.14 44 15 C46.33763884 19.67527768 46.33320727 22.71437051 46.3125 27.8125 C46.32861328 28.59431641 46.34472656 29.37613281 46.36132812 30.18164062 C46.36704462 37.0242907 44.72273307 41.48973182 40.8125 47.1875 C36.45320574 51.54679426 31.93338591 53.51665352 26 55 C17.42 55 8.84 55 0 55 C0 36.85 0 18.7 0 0 Z " fill="#0A4293" transform="translate(107,309)"/>
<path d="M0 0 C1 3 1 3 0.3125 5.5625 C-1.16086774 8.29875437 -2.13522966 8.94958421 -5 10 C-5 10.66 -5 11.32 -5 12 C-1.89601022 12.08710289 1.20766548 12.14042309 4.3125 12.1875 C5.19357422 12.21263672 6.07464844 12.23777344 6.98242188 12.26367188 C7.82998047 12.27333984 8.67753906 12.28300781 9.55078125 12.29296875 C10.33106689 12.3086792 11.11135254 12.32438965 11.9152832 12.34057617 C14.49903853 11.91847304 15.36292167 10.98510058 17 9 C16.67 10.65 16.34 12.3 16 14 C16.515625 13.67 17.03125 13.34 17.5625 13 C20.78026512 11.67989123 23.5570528 11.86757895 27 12 C26.505 10.02 26.505 10.02 26 8 C27.32 7.67 28.64 7.34 30 7 C30.495 7.99 30.495 7.99 31 9 C29.43154123 11.72359836 28.19932809 13.81620196 26 16 C22.91721028 16.64801295 20.90937967 16.83273993 17.85546875 16.68359375 C17.08568192 16.67368912 16.31589508 16.66378448 15.52278137 16.65357971 C13.07570857 16.6145415 10.6332045 16.5267628 8.1875 16.4375 C6.52415357 16.40237142 4.86073646 16.37043508 3.19726562 16.34179688 C-0.87023689 16.2648172 -4.93434536 16.14412722 -9 16 C-9 11.86002304 -6.83167083 9.54392969 -4.5 6.3125 C-4.07074219 5.70599609 -3.64148438 5.09949219 -3.19921875 4.47460938 C-2.13906862 2.97861974 -1.07034429 1.488713 0 0 Z " fill="#0F73C2" transform="translate(305,266)"/>
<path d="M0 0 C1.65 0 3.3 0 5 0 C5 0.66 5 1.32 5 2 C5.66 2 6.32 2 7 2 C6.98839844 2.82242187 6.97679687 3.64484375 6.96484375 4.4921875 C6.90898042 11.40327971 7.13305966 18.14188265 8 25 C7.01 25.33 6.02 25.66 5 26 C3 24.25 3 24.25 1 22 C1 20.68 1 19.36 1 18 C0.01 17.67 -0.98 17.34 -2 17 C-2.08090971 15.37581255 -2.13914995 13.75048255 -2.1875 12.125 C-2.22230469 11.22007812 -2.25710937 10.31515625 -2.29296875 9.3828125 C-2.19628906 8.59648437 -2.09960938 7.81015625 -2 7 C-1.01 6.34 -0.02 5.68 1 5 C0.67 3.35 0.34 1.7 0 0 Z " fill="#027CF9" transform="translate(244,334)"/>
<path d="M0 0 C-0.25390625 1.890625 -0.25390625 1.890625 -1 4 C-2.77734375 5.046875 -2.77734375 5.046875 -4.9375 5.75 C-6.00291016 6.11351563 -6.00291016 6.11351563 -7.08984375 6.484375 C-9 7 -9 7 -11 7 C-11.2475 7.598125 -11.495 8.19625 -11.75 8.8125 C-13 11 -13 11 -15.0625 12.4375 C-17.25927057 13.86599731 -17.25927057 13.86599731 -17.5 16.5625 C-18 19 -18 19 -19.9375 20.3125 C-22 21 -22 21 -24 21 C-24.66 21.99 -25.32 22.98 -26 24 C-26.99 24 -27.98 24 -29 24 C-29.103125 24.886875 -29.20625 25.77375 -29.3125 26.6875 C-30.01715907 30.0826755 -30.9554566 32.21942098 -33 35 C-33.66 35 -34.32 35 -35 35 C-35.33 35.99 -35.66 36.98 -36 38 C-36.33 37.34 -36.66 36.68 -37 36 C-33.41025133 26.10949456 -26.11481957 16.6588625 -18 10 C-17.34 10 -16.68 10 -16 10 C-16 9.34 -16 8.68 -16 8 C-14.171875 6.5625 -14.171875 6.5625 -11.75 5 C-10.96109375 4.484375 -10.1721875 3.96875 -9.359375 3.4375 C-3.7173913 0 -3.7173913 0 0 0 Z " fill="#0C49B3" transform="translate(153,115)"/>
<path d="M0 0 C-0.99 0.495 -0.99 0.495 -2 1 C-2.33 1.66 -2.66 2.32 -3 3 C-3.66 2.67 -4.32 2.34 -5 2 C-5 2.99 -5 3.98 -5 5 C0.28 5.66 5.56 6.32 11 7 C11 8.32 11 9.64 11 11 C10.01 10.67 9.02 10.34 8 10 C2.66704568 9.656509 2.66704568 9.656509 -2 12 C-4.57068155 16.46486795 -4.19561922 21.01170999 -4 26 C-4.99 26 -5.98 26 -7 26 C-7.02703381 24.06257659 -7.04641125 22.12504521 -7.0625 20.1875 C-7.07410156 19.10855469 -7.08570313 18.02960938 -7.09765625 16.91796875 C-7 14 -7 14 -6 11 C-6.66 10.67 -7.32 10.34 -8 10 C-7.67 9.34 -7.34 8.68 -7 8 C-8.98 8.33 -10.96 8.66 -13 9 C-11.81817091 4.40399799 -9.5133843 2.51425189 -5.8515625 -0.1796875 C-3.50952707 -1.21729813 -2.36546493 -0.84406458 0 0 Z " fill="#0C77CC" transform="translate(300,323)"/>
<path d="M0 0 C2.97 0 5.94 0 9 0 C8.67 2.31 8.34 4.62 8 7 C6.35 7.33 4.7 7.66 3 8 C3 8.66 3 9.32 3 10 C1.68 10 0.36 10 -1 10 C-1 10.66 -1 11.32 -1 12 C-5.29 12 -9.58 12 -14 12 C-13.67 11.01 -13.34 10.02 -13 9 C-12.34 9 -11.68 9 -11 9 C-11 8.34 -11 7.68 -11 7 C-7.37 6.01 -3.74 5.02 0 4 C0 2.68 0 1.36 0 0 Z " fill="#0380F7" transform="translate(268,351)"/>
<path d="M0 0 C2 0 2 0 3.5 1.4375 C3.995 1.953125 4.49 2.46875 5 3 C5.66 3.33 6.32 3.66 7 4 C7 4.99 7 5.98 7 7 C9.475 7.99 9.475 7.99 12 9 C12 9.66 12 10.32 12 11 C12.99 11.33 13.98 11.66 15 12 C15.6875 14.0625 15.6875 14.0625 16 16 C19.73410075 16.76379333 22.35460538 17.09361839 26 16 C27.32 16 28.64 16 30 16 C29.42415568 18.38564077 28.77772405 20.66682784 28 23 C28.639375 23.103125 29.27875 23.20625 29.9375 23.3125 C30.618125 23.539375 31.29875 23.76625 32 24 C32.495 25.485 32.495 25.485 33 27 C28.50902459 25.65135873 24.67388743 23.85935169 20.625 21.5 C19.56539062 20.8915625 18.50578125 20.283125 17.4140625 19.65625 C16.61742187 19.1096875 15.82078125 18.563125 15 18 C15 17.34 15 16.68 15 16 C14.44699219 15.78214844 13.89398438 15.56429687 13.32421875 15.33984375 C10.21367646 13.54670761 8.20900565 11.2280373 5.8125 8.5625 C4.93207031 7.59441406 4.05164063 6.62632812 3.14453125 5.62890625 C1 3 1 3 0 0 Z " fill="#0360F4" transform="translate(122,216)"/>
<path d="M0 0 C0.99 0 1.98 0 3 0 C6.22265625 5.17578125 6.22265625 5.17578125 7 7 C6.67 7.99 6.34 8.98 6 10 C5.236875 9.505 4.47375 9.01 3.6875 8.5 C1.07636249 6.75631692 1.07636249 6.75631692 -2 7 C-2 8.65 -2 10.3 -2 12 C-2.61875 12.04125 -3.2375 12.0825 -3.875 12.125 C-4.57625 12.41375 -5.2775 12.7025 -6 13 C-7.18335395 15.88318775 -7.18335395 15.88318775 -8 19 C-10.46280703 22.69421055 -11.66011204 22.74007575 -15.875 23.75 C-16.92429688 24.01296875 -17.97359375 24.2759375 -19.0546875 24.546875 C-21.8363825 24.97482808 -23.38793506 24.93378167 -26 24 C-25.33613281 23.68546875 -24.67226562 23.3709375 -23.98828125 23.046875 C-19.20745346 20.72974387 -15.08157992 18.44383306 -11 15 C-10.34 15 -9.68 15 -9 15 C-9 14.34 -9 13.68 -9 13 C-8.34 13 -7.68 13 -7 13 C-6.72414062 12.43796875 -6.44828125 11.8759375 -6.1640625 11.296875 C-4.95631972 8.91381206 -3.67823191 6.5820992 -2.375 4.25 C-1.92898437 3.45078125 -1.48296875 2.6515625 -1.0234375 1.828125 C-0.68570313 1.22484375 -0.34796875 0.6215625 0 0 Z " fill="#0C5CBE" transform="translate(220,192)"/>
<path d="M0 0 C0.94602608 3.0851746 1.01578237 5.49259007 0.625 8.6875 C0.53476563 9.47511719 0.44453125 10.26273438 0.3515625 11.07421875 C0 13 0 13 -1 14 C-1.09938556 15.52866248 -1.13080139 17.06186148 -1.1328125 18.59375 C-1.13410156 19.5425 -1.13539062 20.49125 -1.13671875 21.46875 C-1.13285156 22.4690625 -1.12898438 23.469375 -1.125 24.5 C-1.12886719 25.469375 -1.13273437 26.43875 -1.13671875 27.4375 C-1.12874165 33.37246158 -0.76609764 39.11442445 0 45 C0.66 45 1.32 45 2 45 C2.99 50.445 2.99 50.445 4 56 C4.66 56 5.32 56 6 56 C6.33 58.31 6.66 60.62 7 63 C-1.25740802 55.23382588 -3.85301418 42.23687735 -4.35546875 31.30078125 C-4.39775716 29.28411216 -4.42512231 27.26707445 -4.4375 25.25 C-4.44749023 24.30439209 -4.45748047 23.35878418 -4.46777344 22.38452148 C-4.37122893 14.45752771 -2.49270426 7.47811278 0 0 Z " fill="#0D3992" transform="translate(115,153)"/>
<path d="M0 0 C1.9375 1.5625 1.9375 1.5625 3 4 C2.8125 7.6875 2.8125 7.6875 2 11 C-1.0832635 12.54163175 -3.60878099 12.29747535 -7 12 C-9 10.3125 -9 10.3125 -10 8 C-9.8624874 5.18099161 -9.35530428 3.54230653 -7.8125 1.1875 C-5.08206067 -0.60140853 -3.18261281 -0.46413104 0 0 Z " fill="#1450A2" transform="translate(168,307)"/>
<path d="M0 0 C0 0.66 0 1.32 0 2 C0.66 2 1.32 2 2 2 C3.125 7.625 3.125 7.625 2 11 C-1.01324195 12.50662097 -3.68286377 12.17770373 -7 12 C-9.32528287 9.67471713 -9.29511025 9.15334102 -9.3125 6 C-9.32925781 5.29875 -9.34601563 4.5975 -9.36328125 3.875 C-9.24339844 3.25625 -9.12351563 2.6375 -9 2 C-5.5647952 -0.29013653 -4.014669 -0.17842973 0 0 Z " fill="#0C61C0" transform="translate(232,307)"/>
<path d="M0 0 C3.63 0 7.26 0 11 0 C11.04948638 6.31712708 11.08576074 12.63414098 11.10986328 18.95141602 C11.11991265 21.09987351 11.13355433 23.24831737 11.15087891 25.39672852 C11.17517376 28.48717622 11.18649386 31.57744287 11.1953125 34.66796875 C11.20563507 35.62648239 11.21595764 36.58499603 11.22659302 37.57255554 C11.22736062 42.14860751 11.20761889 45.85594033 9 50 C8.04228864 47.12686592 7.90347358 45.49554794 7.97827148 42.52856445 C8.00841591 41.17750359 8.00841591 41.17750359 8.03916931 39.79914856 C8.06620438 38.83031235 8.09323944 37.86147614 8.12109375 36.86328125 C8.14470474 35.86870407 8.16831573 34.87412689 8.19264221 33.84941101 C8.26926377 30.67029494 8.35329488 27.49142337 8.4375 24.3125 C8.49072218 22.15821512 8.54346257 20.00391828 8.59570312 17.84960938 C8.72487697 12.56625118 8.86069672 7.28310043 9 2 C4.545 2.495 4.545 2.495 0 3 C0 2.01 0 1.02 0 0 Z " fill="#085DB0" transform="translate(205,322)"/>
<path d="M0 0 C3.63 0 7.26 0 11 0 C12.69196504 3.38393008 12.11986549 7.22477791 12.09765625 10.9453125 C12.0962413 11.8303244 12.09482635 12.7153363 12.09336853 13.62716675 C12.0877614 16.45981191 12.07520771 19.29237864 12.0625 22.125 C12.05748592 24.04296761 12.05292285 25.96093646 12.04882812 27.87890625 C12.03778966 32.58596782 12.02052025 37.2929706 12 42 C8.04 42 4.08 42 0 42 C0 28.14 0 14.28 0 0 Z M1 2 C1 14.87 1 27.74 1 41 C3.97 41 6.94 41 10 41 C10.02464849 35.60653012 10.04283531 30.21309275 10.05493164 24.81958008 C10.05997231 22.98331125 10.06680477 21.14704646 10.07543945 19.31079102 C10.08751672 16.67723599 10.09323081 14.04373384 10.09765625 11.41015625 C10.10281754 10.58411392 10.10797882 9.75807159 10.11329651 8.90699768 C10.11349205 6.93763632 10.06204152 4.96838386 10 3 C9.67 2.67 9.34 2.34 9 2 C6.36 2 3.72 2 1 2 Z " fill="#145FAC" transform="translate(223,322)"/>
<path d="M0 0 C8.41929191 6.70106907 14.08608836 14.47817121 19 24 C19.598125 25.0725 20.19625 26.145 20.8125 27.25 C22.03986473 30.09231832 22.26980319 31.94223051 22 35 C18.1334716 31.777893 17.11940982 28.85077588 16 24 C15.01 24 14.02 24 13 24 C13.04125 23.21625 13.0825 22.4325 13.125 21.625 C13.28728734 18.83883881 13.28728734 18.83883881 11 17 C11.33 16.34 11.66 15.68 12 15 C10.68 15 9.36 15 8 15 C7.87625 14.360625 7.7525 13.72125 7.625 13.0625 C7.41875 12.381875 7.2125 11.70125 7 11 C6.34 10.67 5.68 10.34 5 10 C5 9.34 5 8.68 5 8 C4.360625 7.855625 3.72125 7.71125 3.0625 7.5625 C1 7 1 7 0 6 C-0.04080783 4.00041636 -0.04254356 1.99954746 0 0 Z " fill="#0D8FD4" transform="translate(363,125)"/>
<path d="M0 0 C1.20269531 -0.06316406 2.40539062 -0.12632812 3.64453125 -0.19140625 C7.7762867 0.68778758 9.53511957 1.56123941 12.07788086 4.89916992 C14.71954252 11.23973913 13.77591304 18.74930247 13.5625 25.5 C13.53237269 27.15424852 13.50500173 28.80854968 13.48046875 30.46289062 C13.41466553 34.49740202 13.31130332 38.52936868 13.1875 42.5625 C9.5575 42.5625 5.9275 42.5625 2.1875 42.5625 C2.1875 38.6025 2.1875 34.6425 2.1875 30.5625 C2.5175 30.5625 2.8475 30.5625 3.1875 30.5625 C3.1875 34.1925 3.1875 37.8225 3.1875 41.5625 C6.1575 41.5625 9.1275 41.5625 12.1875 41.5625 C12.11874341 37.04127933 12.03083968 32.52099432 11.92504883 28.00048828 C11.8917627 26.46218221 11.86374222 24.92375293 11.84106445 23.38525391 C11.80758442 21.17557182 11.7552769 18.96702265 11.69921875 16.7578125 C11.69282883 16.06817413 11.6864389 15.37853577 11.67985535 14.66799927 C11.64724286 12.51564611 11.64724286 12.51564611 11.1875 9.5625 C10.1975 8.9025 9.2075 8.2425 8.1875 7.5625 C8.1875 6.2425 8.1875 4.9225 8.1875 3.5625 C4.8875 2.9025 1.5875 2.2425 -1.8125 1.5625 C-2.1425 2.2225 -2.4725 2.8825 -2.8125 3.5625 C-4.8125 3.89583333 -6.8125 4.22916667 -8.8125 4.5625 C-9.1425 5.2225 -9.4725 5.8825 -9.8125 6.5625 C-10.4725 6.5625 -11.1325 6.5625 -11.8125 6.5625 C-9.30328239 0.77199783 -6.02792891 0.19900511 0 0 Z " fill="#1C88BD" transform="translate(376.8125,321.4375)"/>
<path d="M0 0 C0 0.33 0 0.66 0 1 C-1.65 1 -3.3 1 -5 1 C-5 0.34 -5 -0.32 -5 -1 C-5.79664063 -1.06058594 -6.59328125 -1.12117188 -7.4140625 -1.18359375 C-16.44172798 -1.89746024 -16.44172798 -1.89746024 -20.0625 -2.5625 C-25.61943675 -3.39012888 -31.63752819 -3.7874906 -37 -2 C-39.06145107 -1.931009 -41.12501401 -1.91532273 -43.1875 -1.9375 C-44.81751953 -1.95103516 -44.81751953 -1.95103516 -46.48046875 -1.96484375 C-47.31191406 -1.97644531 -48.14335937 -1.98804687 -49 -2 C-49 -1.34 -49 -0.68 -49 0 C-51.31 0 -53.62 0 -56 0 C-53.60383408 -2.39616592 -52.0042896 -2.71336159 -48.75 -3.5625 C-47.81671875 -3.81128906 -46.8834375 -4.06007813 -45.921875 -4.31640625 C-30.38782102 -7.95071032 -14.4943101 -6.60581389 0 0 Z " fill="#0F4CA6" transform="translate(209,115)"/>
<path d="M0 0 C2.64 0 5.28 0 8 0 C8 0.99 8 1.98 8 3 C10.97 3.495 10.97 3.495 14 4 C14 4.66 14 5.32 14 6 C13.21625 5.938125 12.4325 5.87625 11.625 5.8125 C10.325625 5.9053125 10.325625 5.9053125 9 6 C8.01 7.485 8.01 7.485 7 9 C13.93 9 20.86 9 28 9 C27.67 9.66 27.34 10.32 27 11 C19.75606806 13.02726794 10.90155291 13.06735685 4 10 C4 8.68 4 7.36 4 6 C3.01 5.67 2.02 5.34 1 5 C0.67 3.35 0.34 1.7 0 0 Z " fill="#0863D3" transform="translate(180,368)"/>
<path d="M0 0 C1.14275391 0.13148438 1.14275391 0.13148438 2.30859375 0.265625 C4.71506757 0.78278749 6.48988901 1.41988481 8.5625 2.75 C8.8925 3.74 9.2225 4.73 9.5625 5.75 C6.31821711 8.36635717 4.10771754 8.96769708 0.0625 8.5625 C-3.33174229 8.05251368 -6.32887105 7.2541753 -9.4375 5.75 C-9.4375 4.76 -9.4375 3.77 -9.4375 2.75 C-8.7775 2.42 -8.1175 2.09 -7.4375 1.75 C-4.16689407 -0.43040395 -3.67375511 -0.47083539 0 0 Z " fill="#058AF6" transform="translate(304.4375,322.25)"/>
<path d="M0 0 C4.640625 -0.061875 9.28125 -0.12375 14.0625 -0.1875 C16.23791382 -0.22846802 16.23791382 -0.22846802 18.45727539 -0.27026367 C25.03590758 -0.31275362 30.23690076 -0.34207125 36 3 C36 3.66 36 4.32 36 5 C36.66 5 37.32 5 38 5 C38 5.66 38 6.32 38 7 C35.35297778 6.01682032 33.06912197 5.04683508 30.72387695 3.45776367 C27.48156549 1.72254437 25.26761369 1.57506194 21.60546875 1.48828125 C20.52160889 1.45516846 19.43774902 1.42205566 18.32104492 1.38793945 C16.9569751 1.36304443 15.59290527 1.33814941 14.1875 1.3125 C9.835625 1.209375 5.48375 1.10625 1 1 C1 18.16 1 35.32 1 53 C0.67 53 0.34 53 0 53 C0 35.51 0 18.02 0 0 Z " fill="#115DD9" transform="translate(108,310)"/>
<path d="M0 0 C1.32 0.33 2.64 0.66 4 1 C3.79905835 2.96143041 3.56328747 4.91931791 3.3125 6.875 C3.12107422 8.51082031 3.12107422 8.51082031 2.92578125 10.1796875 C2.62027344 11.11039063 2.31476563 12.04109375 2 13 C-0.51953125 14.2578125 -0.51953125 14.2578125 -3 15 C-3.33 15.66 -3.66 16.32 -4 17 C-4.66 16.67 -5.32 16.34 -6 16 C-3.03 11.545 -3.03 11.545 0 7 C-1.16917969 6.80664062 -2.33835938 6.61328125 -3.54296875 6.4140625 C-5.09119532 6.15133314 -6.6393697 5.88829608 -8.1875 5.625 C-8.95642578 5.49867188 -9.72535156 5.37234375 -10.51757812 5.2421875 C-14.57661938 4.54535638 -18.22954016 3.7378873 -22 2 C-22 1.67 -22 1.34 -22 1 C-19.36 1 -16.72 1 -14 1 C-14 1.66 -14 2.32 -14 3 C-11.8535247 2.88655624 -9.70779408 2.75893655 -7.5625 2.625 C-6.36753906 2.55539063 -5.17257813 2.48578125 -3.94140625 2.4140625 C-2.97074219 2.27742187 -2.00007813 2.14078125 -1 2 C-0.67 1.34 -0.34 0.68 0 0 Z " fill="#0665EE" transform="translate(178,242)"/>
<path d="M0 0 C0.33 1.65 0.66 3.3 1 5 C-2.96 5 -6.92 5 -11 5 C-11.33 3.68 -11.66 2.36 -12 1 C-12.99 1.495 -12.99 1.495 -14 2 C-16.125 1.5625 -16.125 1.5625 -18 1 C-18 0.34 -18 -0.32 -18 -1 C-18.66 -1.33 -19.32 -1.66 -20 -2 C-12.91496955 -4.36167682 -6.79338139 -2.29635427 0 0 Z " fill="#028AF9" transform="translate(309,358)"/>
<path d="M0 0 C0.33 0.99 0.66 1.98 1 3 C0.67 3.66 0.34 4.32 0 5 C-0.66 5 -1.32 5 -2 5 C-2.33 9.62 -2.66 14.24 -3 19 C-2.34 19.33 -1.68 19.66 -1 20 C-1.33 22.64 -1.66 25.28 -2 28 C-1.34 28 -0.68 28 0 28 C0.33 29.32 0.66 30.64 1 32 C2.2065625 32.185625 2.2065625 32.185625 3.4375 32.375 C4.283125 32.58125 5.12875 32.7875 6 33 C6.33 33.66 6.66 34.32 7 35 C9.11846285 35.68729254 9.11846285 35.68729254 11.5625 36.125 C12.80193359 36.37636719 12.80193359 36.37636719 14.06640625 36.6328125 C15.02353516 36.81457031 15.02353516 36.81457031 16 37 C16 37.33 16 37.66 16 38 C10.51038453 38.33609891 6.82702374 37.68167985 2 35 C-3.94810442 29.05189558 -5.44812822 22.99083924 -6.10546875 14.82421875 C-5.8914036 9.09202966 -3.10978836 4.66468254 0 0 Z " fill="#105EB8" transform="translate(181,326)"/>
<path d="M0 0 C3 1 3 1 4.25 2.9375 C5.68350441 8.79097633 4.98311629 14.70331462 2.1875 20.0625 C0 23 0 23 -1.8828125 23.73046875 C-6.18903039 24.2786773 -10.47878683 23.01414211 -14.0625 20.625 C-15 19 -15 19 -14.6875 16.8125 C-14.3471875 15.9153125 -14.3471875 15.9153125 -14 15 C-14 15.99 -14 16.98 -14 18 C-13.34 18 -12.68 18 -12 18 C-12 18.66 -12 19.32 -12 20 C-6.19315932 20.50635838 -6.19315932 20.50635838 -1 18.1875 C2.20137265 13.08531233 1.77072076 7.44523682 0.4765625 1.66015625 C0.31929688 1.11230469 0.16203125 0.56445312 0 0 Z " fill="#167DC2" transform="translate(311,334)"/>
<path d="M0 0 C0 0.33 0 0.66 0 1 C-1.16015625 1.04898438 -2.3203125 1.09796875 -3.515625 1.1484375 C-18.33923283 1.46928606 -18.33923283 1.46928606 -32.5546875 5.05859375 C-35.02993936 6.01152618 -36.68681458 6.21400629 -39.3125 6.125 C-40.529375 6.08375 -41.74625 6.0425 -43 6 C-39.31920453 2.59257926 -35.32544349 1.82944744 -30.5625 0.8125 C-29.36294678 0.55206909 -29.36294678 0.55206909 -28.13916016 0.28637695 C-18.6632761 -1.64501947 -9.52941235 -1.49480978 0 0 Z " fill="#0E6EB3" transform="translate(332,110)"/>
<path d="M0 0 C0.66 0 1.32 0 2 0 C2.309375 0.804375 2.61875 1.60875 2.9375 2.4375 C3.76335345 4.89080405 3.76335345 4.89080405 5 6 C5.32097751 8.31817089 5.51220956 10.63779357 5.71875 12.96875 C5.79065837 14.99180593 5.79065837 14.99180593 7 16 C7.59712779 25.35500201 5.61432016 35.32296 0 43 C-2.1640625 43.77734375 -2.1640625 43.77734375 -4 44 C-4 43.34 -4 42.68 -4 42 C-3.34 42 -2.68 42 -2 42 C-1.731875 41.13375 -1.46375 40.2675 -1.1875 39.375 C0 36 0 36 1.5625 33.4375 C5.02982792 25.14606367 4.67703851 15.50077141 2 7 C1.64550781 6.31035156 1.29101562 5.62070313 0.92578125 4.91015625 C0 3 0 3 0 0 Z " fill="#1681B8" transform="translate(354,159)"/>
<path d="M0 0 C0.33 0.99 0.66 1.98 1 3 C12.22 2.67 23.44 2.34 35 2 C34.34 2.99 33.68 3.98 33 5 C30.30459685 5.26686213 27.84152536 5.34818073 25.1484375 5.29296875 C24.37440582 5.28872391 23.60037415 5.28447906 22.80288696 5.28010559 C20.32657323 5.26328998 17.85106842 5.22563395 15.375 5.1875 C13.69792841 5.17245682 12.02084408 5.15876778 10.34375 5.14648438 C6.22885419 5.11337721 2.11456431 5.06157637 -2 5 C-1.125 1.125 -1.125 1.125 0 0 Z " fill="#0F4592" transform="translate(159,277)"/>
<path d="M0 0 C1.9375 0.75 1.9375 0.75 4 2 C4.75 4.125 4.75 4.125 5 6 C5.94875 5.79375 6.8975 5.5875 7.875 5.375 C9.421875 5.189375 9.421875 5.189375 11 5 C11.66 5.66 12.32 6.32 13 7 C12.67 7.66 12.34 8.32 12 9 C15.96 9.33 19.92 9.66 24 10 C24 9.34 24 8.68 24 8 C25.65 8 27.3 8 29 8 C29 8.66 29 9.32 29 10 C23.08539024 12.66423863 16.95828094 13.17480176 10.68359375 11.3125 C5.89470122 9.13160018 2.99004684 6.29819233 0 2 C0 1.34 0 0.68 0 0 Z " fill="#0A7BCE" transform="translate(286,353)"/>
<path d="M0 0 C0.99 0.33 1.98 0.66 3 1 C1.88368586 2.83863505 0.75670373 4.67079723 -0.375 6.5 C-1.00148438 7.5209375 -1.62796875 8.541875 -2.2734375 9.59375 C-2.84320313 10.3878125 -3.41296875 11.181875 -4 12 C-4.66 12 -5.32 12 -6 12 C-6.226875 12.680625 -6.45375 13.36125 -6.6875 14.0625 C-8.35572357 17.79614324 -10.55729608 20.72163421 -13 24 C-14 21 -14 21 -14 19 C-13.34 19 -12.68 19 -12 19 C-11.67 17.02 -11.34 15.04 -11 13 C-10.34 13 -9.68 13 -9 13 C-9 12.34 -9 11.68 -9 11 C-8.34 11 -7.68 11 -7 11 C-6.71125 10.360625 -6.4225 9.72125 -6.125 9.0625 C-5 7 -5 7 -3 6 C-2.835 5.175 -2.67 4.35 -2.5 3.5 C-2.335 2.675 -2.17 1.85 -2 1 C-1.34 0.67 -0.68 0.34 0 0 Z " fill="#1173B9" transform="translate(359,237)"/>
<path d="M0 0 C2.03045027 0.43662314 4.04939255 0.92684704 6.0625 1.4375 C16.61332379 3.79769449 27.32664621 3.7788923 38 2 C38 2.66 38 3.32 38 4 C25.18557245 6.7760462 13.832996 5.93967011 1 4 C1 3.34 1 2.68 1 2 C0.34 1.67 -0.32 1.34 -1 1 C-0.67 0.67 -0.34 0.34 0 0 Z " fill="#1878B7" transform="translate(294,215)"/>
<path d="M0 0 C1.2835514 2.56710279 0.71188136 3.26637557 0 6 C-0.92609221 15.52551988 0.73459068 22.50726537 5 31 C5.495 32.03060547 5.495 32.03060547 6 33.08203125 C6.64213321 34.40025664 7.31558904 35.70322135 8 37 C7.34 37 6.68 37 6 37 C6 36.34 6 35.68 6 35 C5.01 35 4.02 35 3 35 C3 33.68 3 32.36 3 31 C2.34 31 1.68 31 1 31 C-3.21934966 21.45623291 -2.28927715 11.19145658 -2 1 C-1.34 0.67 -0.68 0.34 0 0 Z " fill="#0C48AE" transform="translate(141,167)"/>
<path d="M0 0 C2 2 2 2 2.3125 5.8125 C2.18275741 10.58702719 0.60445417 13.27212628 -2.625 16.75 C-6.23612509 18.65059215 -9.97136133 18.75036213 -14 19 C-14 17.68 -14 16.36 -14 15 C-15.32 14.67 -16.64 14.34 -18 14 C-17.67 11.69 -17.34 9.38 -17 7 C-14.84145761 9.15854239 -13.54500087 11.38021592 -12 14 C-11.67 14.33 -11.34 14.66 -11 15 C-6.87608042 15.00806948 -6.87608042 15.00806948 -3 14 C0.0145677 9.28973797 0.3440255 5.61908313 0 0 Z " fill="#1164C0" transform="translate(204,338)"/>
<path d="M0 0 C3.46941546 0.45822468 6.67395049 0.89131683 10 2 C11.64820195 4.60242414 12 5.86248779 12 9 C9.03 9 6.06 9 3 9 C2 6 2 6 3 3 C2.01 2.67 1.02 2.34 0 2 C0 1.34 0 0.68 0 0 Z " fill="#0481F5" transform="translate(265,327)"/>
<path d="M0 0 C1.875 0.3125 1.875 0.3125 4 1 C6.39485693 4.5922854 6.17558429 5.96005459 5.9765625 10.19921875 C5.89921875 12.01196289 5.89921875 12.01196289 5.8203125 13.86132812 C5.75585938 15.12396484 5.69140625 16.38660156 5.625 17.6875 C5.56828125 18.96173828 5.5115625 20.23597656 5.453125 21.54882812 C5.31150935 24.69977629 5.16008115 27.84994472 5 31 C7.97 31 10.94 31 14 31 C14 25.72 14 20.44 14 15 C14.33 15 14.66 15 15 15 C15 20.61 15 26.22 15 32 C11.37 32 7.74 32 4 32 C3.67 22.1 3.34 12.2 3 2 C2.01 1.67 1.02 1.34 0 1 C0 0.67 0 0.34 0 0 Z " fill="#0D5883" transform="translate(351,332)"/>
<path d="M0 0 C1.88299526 2.11836967 2.91939601 3.56243551 3.4375 6.375 C2.83738538 9.97568775 1.24227502 12.1641816 -1 15 C-1.66 15 -2.32 15 -3 15 C-3.66 16.98 -4.32 18.96 -5 21 C-5.66 21 -6.32 21 -7 21 C-7.33 21.99 -7.66 22.98 -8 24 C-8.33 24 -8.66 24 -9 24 C-8.58894145 18.75900345 -7.75960806 15.75960806 -4 12 C-3.34 12 -2.68 12 -2 12 C-2 11.01 -2 10.02 -2 9 C-1.34 9 -0.68 9 0 9 C0 6.03 0 3.06 0 0 Z " fill="#0C5AA8" transform="translate(233,211)"/>
<path d="M0 0 C0.99 0.33 1.98 0.66 3 1 C1.02 4.63 -0.96 8.26 -3 12 C-3.66 12 -4.32 12 -5 12 C-4.938125 13.423125 -4.938125 13.423125 -4.875 14.875 C-5 18 -5 18 -7 20 C-6.67 17.69 -6.34 15.38 -6 13 C-6.66 13 -7.32 13 -8 13 C-7.34 10.03 -6.68 7.06 -6 4 C-4.68 3.67 -3.36 3.34 -2 3 C-1.34 2.01 -0.68 1.02 0 0 Z " fill="#055EF1" transform="translate(144,156)"/>
<path d="M0 0 C2 0 2 0 3.5 1.4375 C3.995 1.953125 4.49 2.46875 5 3 C5.66 3.33 6.32 3.66 7 4 C7 4.99 7 5.98 7 7 C9.475 7.99 9.475 7.99 12 9 C12 9.66 12 10.32 12 11 C12.99 11.33 13.98 11.66 15 12 C15.144375 12.639375 15.28875 13.27875 15.4375 13.9375 C15.80104993 16.20311706 15.80104993 16.20311706 18.0625 17.25 C18.701875 17.4975 19.34125 17.745 20 18 C20 18.66 20 19.32 20 20 C18.35 19.34 16.7 18.68 15 18 C15 17.34 15 16.68 15 16 C14.44699219 15.78214844 13.89398438 15.56429687 13.32421875 15.33984375 C10.21367646 13.54670761 8.20900565 11.2280373 5.8125 8.5625 C4.93207031 7.59441406 4.05164063 6.62632812 3.14453125 5.62890625 C1 3 1 3 0 0 Z " fill="#0752CD" transform="translate(122,216)"/>
<path d="M0 0 C0.43828125 0.36351562 0.8765625 0.72703125 1.328125 1.1015625 C7.12198256 5.69425447 13.34031273 8.84140547 20 12 C21.33509698 12.66312764 22.66921114 13.32826848 24 14 C18.19826418 14.30008978 15.1832316 13.8169737 10 11 C8.96875 10.938125 7.9375 10.87625 6.875 10.8125 C4 10 4 10 2.734375 8.234375 C0 2.88116197 0 2.88116197 0 0 Z " fill="#084EC0" transform="translate(149,204)"/>
<path d="M0 0 C1.67460535 0.2908364 3.33990013 0.63536688 5 1 C7.26920467 1.36445608 9.5401491 1.71820441 11.8125 2.0625 C13.55466797 2.32740234 13.55466797 2.32740234 15.33203125 2.59765625 C16.21246094 2.73042969 17.09289062 2.86320312 18 3 C18 5.31 18 7.62 18 10 C17.484375 9.175 16.96875 8.35 16.4375 7.5 C14.15772878 4.65159077 14.15772878 4.65159077 10.4375 4.5 C7.08601701 4.70467115 7.08601701 4.70467115 5.1875 6.375 C4.795625 6.91125 4.40375 7.4475 4 8 C3.34 8.66 2.68 9.32 2 10 C1.67 8.35 1.34 6.7 1 5 C1.66 5 2.32 5 3 5 C2.04134491 2.66924071 2.04134491 2.66924071 -1 1 C-0.67 0.67 -0.34 0.34 0 0 Z " fill="#0B6CE6" transform="translate(186,328)"/>
<path d="M0 0 C0.66 0.33 1.32 0.66 2 1 C0.40284723 3.46315118 -1.20225043 5.9204332 -2.8125 8.375 C-3.26431641 9.07367188 -3.71613281 9.77234375 -4.18164062 10.4921875 C-4.62314453 11.1625 -5.06464844 11.8328125 -5.51953125 12.5234375 C-6.12438354 13.450354 -6.12438354 13.450354 -6.74145508 14.39599609 C-8 16 -8 16 -11 18 C-11.07427838 14.65747276 -11.06546953 12.1964086 -10 9 C-8.35 8.67 -6.7 8.34 -5 8 C-5.103125 7.236875 -5.20625 6.47375 -5.3125 5.6875 C-5.1578125 4.3571875 -5.1578125 4.3571875 -5 3 C-2.625 1.125 -2.625 1.125 0 0 Z " fill="#0E52A7" transform="translate(214,247)"/>
<path d="M0 0 C6.93 0 13.86 0 21 0 C19.87828746 5.60856269 19.87828746 5.60856269 17 8.6875 C14.72160126 11.14871457 14.72160126 11.14871457 13 14 C12.34 13.67 11.68 13.34 11 13 C13.31 9.37 15.62 5.74 18 2 C16.329375 2.020625 14.65875 2.04125 12.9375 2.0625 C8.50266359 2.06822976 4.3608246 1.77525771 0 1 C0 0.67 0 0.34 0 0 Z " fill="#1271BC" transform="translate(299,246)"/>
<path d="M0 0 C3.55767645 3.1915621 5.79300343 6.78768835 8.0625 10.9375 C10.82697877 15.92171581 10.82697877 15.92171581 13.74609375 20.81640625 C15 23 15 23 15 25 C14.34 25 13.68 25 13 25 C11.64172029 23.35360035 10.30745749 21.68704193 9 20 C8.67 20 8.34 20 8 20 C7.67 17.36 7.34 14.72 7 12 C6.01 11.67 5.02 11.34 4 11 C4 9.68 4 8.36 4 7 C3.01 7 2.02 7 1 7 C0.67 4.69 0.34 2.38 0 0 Z " fill="#0F5FB0" transform="translate(235,137)"/>
<path d="M0 0 C5.75 -0.125 5.75 -0.125 8 1 C8 3.31 8 5.62 8 8 C5.66705225 8.04241723 3.33297433 8.04092937 1 8 C0 7 0 7 -0.0625 3.4375 C-0.041875 2.303125 -0.02125 1.16875 0 0 Z " fill="#036AF4" transform="translate(161,309)"/>
<path d="M0 0 C1.39025391 0.0918457 1.39025391 0.0918457 2.80859375 0.18554688 C5.08221208 0.33790274 7.35358703 0.50559582 9.625 0.6875 C9.625 1.3475 9.625 2.0075 9.625 2.6875 C10.285 3.0175 10.945 3.3475 11.625 3.6875 C10.635 4.1825 10.635 4.1825 9.625 4.6875 C8.635 4.3575 7.645 4.0275 6.625 3.6875 C4.00960418 3.59052785 1.4270917 3.54827738 -1.1875 3.5625 C-1.88681641 3.55863281 -2.58613281 3.55476562 -3.30664062 3.55078125 C-7.43465562 3.55850438 -11.32627695 3.88665368 -15.375 4.6875 C-15.705 4.0275 -16.035 3.3675 -16.375 2.6875 C-10.82146226 -0.9010817 -6.31627908 -0.50908669 0 0 Z " fill="#115AC4" transform="translate(181.375,136.3125)"/>
<path d="M0 0 C8.98106552 2.59247252 16.53723656 8.46515387 22 16 C17.25 15.125 17.25 15.125 15 14 C13.66666667 12 12.33333333 10 11 8 C10.01 7.67 9.02 7.34 8 7 C8 6.34 8 5.68 8 5 C7.236875 4.855625 6.47375 4.71125 5.6875 4.5625 C3 4 3 4 0 3 C0 2.01 0 1.02 0 0 Z " fill="#0A4995" transform="translate(209,116)"/>
<path d="M0 0 C1.28282164 3.84846491 0.48702089 5.28244777 -1 9 C-2.87158325 12.57302256 -4.90587699 15.38933371 -8 18 C-8.99 18 -9.98 18 -11 18 C-9.48103632 13.56829827 -7.07360191 9.96975924 -4.375 6.1875 C-3.95476562 5.59001953 -3.53453125 4.99253906 -3.1015625 4.37695312 C-2.07220272 2.91479435 -1.0367177 1.45695101 0 0 Z " fill="#0B56C6" transform="translate(171,259)"/>
<path d="M0 0 C3.96 0 7.92 0 12 0 C12 0.66 12 1.32 12 2 C15.3 2.66 18.6 3.32 22 4 C22 4.66 22 5.32 22 6 C20.54119891 5.85892253 19.08296449 5.71197585 17.625 5.5625 C16.81289062 5.48128906 16.00078125 5.40007812 15.1640625 5.31640625 C13 5 13 5 11 4 C11 3.01 11 2.02 11 1 C8.36 1 5.72 1 3 1 C4.11854586 4.72614153 4.11854586 4.72614153 7 7 C7 7.99 7 8.98 7 10 C6.34 10 5.68 10 5 10 C5 9.34 5 8.68 5 8 C4.34 8 3.68 8 3 8 C0.95830515 5.09451118 0 3.59857954 0 0 Z " fill="#18589E" transform="translate(177,367)"/>
<path d="M0 0 C1.47919922 0.06960938 1.47919922 0.06960938 2.98828125 0.140625 C3.98214844 0.17671875 4.97601563 0.2128125 6 0.25 C7.13888672 0.31960938 7.13888672 0.31960938 8.30078125 0.390625 C7.80279755 4.12550277 7.42586369 6.20300135 5.30078125 9.390625 C5.63078125 7.080625 5.96078125 4.770625 6.30078125 2.390625 C3.33078125 2.390625 0.36078125 2.390625 -2.69921875 2.390625 C-2.36921875 4.040625 -2.03921875 5.690625 -1.69921875 7.390625 C-5.65921875 7.390625 -9.61921875 7.390625 -13.69921875 7.390625 C-13.36921875 6.730625 -13.03921875 6.070625 -12.69921875 5.390625 C-11.58546875 5.266875 -10.47171875 5.143125 -9.32421875 5.015625 C-8.12796875 4.809375 -6.93171875 4.603125 -5.69921875 4.390625 C-5.24675781 3.72289062 -4.79429687 3.05515625 -4.328125 2.3671875 C-2.69921875 0.390625 -2.69921875 0.390625 0 0 Z " fill="#115E9F" transform="translate(270.69921875,348.609375)"/>
<path d="M0 0 C1.65322266 0.01740234 1.65322266 0.01740234 3.33984375 0.03515625 C4.99693359 0.04869141 4.99693359 0.04869141 6.6875 0.0625 C7.54214844 0.07410156 8.39679688 0.08570313 9.27734375 0.09765625 C9.27734375 0.42765625 9.27734375 0.75765625 9.27734375 1.09765625 C7.60671875 1.53078125 7.60671875 1.53078125 5.90234375 1.97265625 C2.27443283 2.79006954 2.27443283 2.79006954 0.27734375 5.09765625 C-0.09504852 7.91168308 -0.09504852 7.91168308 -0.13671875 11.19921875 C-0.17539062 12.4109375 -0.2140625 13.62265625 -0.25390625 14.87109375 C-0.28484375 16.14210938 -0.31578125 17.413125 -0.34765625 18.72265625 C-0.38632812 20.00140625 -0.425 21.28015625 -0.46484375 22.59765625 C-0.55936674 25.76417642 -0.64491982 28.93068665 -0.72265625 32.09765625 C-1.05265625 32.09765625 -1.38265625 32.09765625 -1.72265625 32.09765625 C-1.7477124 31.30069336 -1.77276855 30.50373047 -1.79858398 29.68261719 C-1.91464414 26.07080403 -2.03732556 22.45924523 -2.16015625 18.84765625 C-2.21913086 16.96626953 -2.21913086 16.96626953 -2.27929688 15.046875 C-2.32119141 13.84160156 -2.36308594 12.63632812 -2.40625 11.39453125 C-2.44290771 10.28432617 -2.47956543 9.17412109 -2.51733398 8.03027344 C-2.69008248 5.56290731 -3.12700432 3.47747891 -3.72265625 1.09765625 C-2.72265625 0.09765625 -2.72265625 0.09765625 0 0 Z " fill="#238FD3" transform="translate(341.72265625,330.90234375)"/>
<path d="M0 0 C0 0.66 0 1.32 0 2 C-5.98316543 5.32398079 -11.32199823 5.6801342 -18 4 C-19.828125 2.4453125 -19.828125 2.4453125 -21 1 C-18.25008168 0.83188272 -15.50007888 0.6654519 -12.75 0.5 C-11.97269531 0.45230469 -11.19539062 0.40460938 -10.39453125 0.35546875 C-9.26337891 0.28779297 -9.26337891 0.28779297 -8.109375 0.21875 C-7.41811523 0.17685547 -6.72685547 0.13496094 -6.01464844 0.09179688 C-4.01161035 0.00052902 -2.0051163 0 0 0 Z " fill="#0E5CC8" transform="translate(194,217)"/>
<path d="M0 0 C0.66 0 1.32 0 2 0 C1.01 5.28 0.02 10.56 -1 16 C-4.48247874 14.83917375 -4.88819244 14.09067524 -6.75 11.0625 C-7.19859375 10.35222656 -7.6471875 9.64195312 -8.109375 8.91015625 C-8.40328125 8.27980469 -8.6971875 7.64945313 -9 7 C-8.67 6.34 -8.34 5.68 -8 5 C-6.5 6.3125 -6.5 6.3125 -5 8 C-5 8.99 -5 9.98 -5 11 C-4.34 11 -3.68 11 -3 11 C-3 9.02 -3 7.04 -3 5 C-2.34 5 -1.68 5 -1 5 C-0.67 3.35 -0.34 1.7 0 0 Z " fill="#1464AB" transform="translate(278,167)"/>
<path d="M0 0 C-0.64066406 0.27972656 -1.28132813 0.55945313 -1.94140625 0.84765625 C-8.1435097 3.72225263 -12.47978826 6.90192028 -17 12 C-17.66 12.66 -18.32 13.32 -19 14 C-19 11.36 -19 8.72 -19 6 C-17.88625 5.54625 -16.7725 5.0925 -15.625 4.625 C-12.03800992 3.27534014 -12.03800992 3.27534014 -10 1 C-6.15868398 -0.58663053 -3.95841909 -1.20808894 0 0 Z " fill="#0D48AB" transform="translate(166,142)"/>
<path d="M0 0 C1.98 0 3.96 0 6 0 C2.08255499 4.25322601 -0.87172606 6.69436404 -6.71875 7.265625 C-7.6365625 7.26046875 -8.554375 7.2553125 -9.5 7.25 C-10.4178125 7.25515625 -11.335625 7.2603125 -12.28125 7.265625 C-15.1778282 6.98262598 -17.36375653 6.20350245 -20 5 C-16.31599416 3.76895845 -13.08525024 4.09232748 -9.25 4.4375 C-8.07953125 4.53933594 -6.9090625 4.64117187 -5.703125 4.74609375 C-4.81109375 4.82988281 -3.9190625 4.91367187 -3 5 C-3 4.34 -3 3.68 -3 3 C-1.68 3 -0.36 3 1 3 C0.67 2.01 0.34 1.02 0 0 Z " fill="#1060AF" transform="translate(270,358)"/>
<path d="M0 0 C3.99620381 3.42531755 5.82863356 7.32882514 8 12 C8.36609375 12.68578125 8.7321875 13.3715625 9.109375 14.078125 C10.22375945 16.48284934 10.14547966 18.38136612 10 21 C6.1334716 17.777893 5.11940982 14.85077588 4 10 C3.01 10 2.02 10 1 10 C1.04125 9.21625 1.0825 8.4325 1.125 7.625 C1.28728734 4.83883881 1.28728734 4.83883881 -1 3 C-0.67 2.01 -0.34 1.02 0 0 Z " fill="#0E83BC" transform="translate(375,139)"/>
<path d="M0 0 C4.34730051 0.51322298 6.30764685 1.33108435 9.375 4.3984375 C9.375 5.0584375 9.375 5.7184375 9.375 6.3984375 C6.92533941 5.81051896 4.58245958 5.13425736 2.1875 4.3359375 C-3.5337723 2.92906726 -8.93431355 2.79271333 -14.625 4.3984375 C-10.43040617 -0.86045626 -6.32443547 -0.17128679 0 0 Z " fill="#0F59AE" transform="translate(196.625,321.6015625)"/>
<path d="M0 0 C3 1 3 1 4.16796875 2.9609375 C4.50441406 3.75757813 4.84085937 4.55421875 5.1875 5.375 C5.53167969 6.16648437 5.87585938 6.95796875 6.23046875 7.7734375 C7 10 7 10 7 13 C-2.88340807 13.92017937 -2.88340807 13.92017937 -5.62109375 11.6640625 C-6.6875 10 -6.6875 10 -8 7 C-6.68 7.33 -5.36 7.66 -4 8 C-4 8.66 -4 9.32 -4 10 C-1.03 10.33 1.94 10.66 5 11 C4.34 8.69 3.68 6.38 3 4 C2.34 4 1.68 4 1 4 C0.67 2.68 0.34 1.36 0 0 Z " fill="#135892" transform="translate(272,325)"/>
<path d="M0 0 C0.8125 1.6875 0.8125 1.6875 1 4 C-1.125 6.5 -1.125 6.5 -4 9 C-5.1446875 10.11375 -5.1446875 10.11375 -6.3125 11.25 C-9.94489637 13.61528135 -12.70075518 13.70852578 -17 14 C-7.28571429 6 -7.28571429 6 -4 6 C-4 5.34 -4 4.68 -4 4 C-3.34 4 -2.68 4 -2 4 C-1.34 2.68 -0.68 1.36 0 0 Z " fill="#1170A7" transform="translate(349,203)"/>
<path d="M0 0 C0.99 0 1.98 0 3 0 C6 4.22222222 6 4.22222222 6 7 C6.66 7 7.32 7 8 7 C8 8.32 8 9.64 8 11 C8.66 11 9.32 11 10 11 C10.53229326 12.26607607 11.05044544 13.53810412 11.5625 14.8125 C11.85253906 15.52019531 12.14257812 16.22789062 12.44140625 16.95703125 C13 19 13 19 12 22 C10.56069536 19.45934066 9.12351161 16.91751978 7.6875 14.375 C7.28337891 13.66214844 6.87925781 12.94929687 6.46289062 12.21484375 C4.19420489 8.19392107 2.0236356 4.15205492 0 0 Z " fill="#0C5AB2" transform="translate(213,156)"/>
<path d="M0 0 C3.63 0 7.26 0 11 0 C11 0.33 11 0.66 11 1 C10.36191406 1.12117188 9.72382813 1.24234375 9.06640625 1.3671875 C7.82697266 1.61855469 7.82697266 1.61855469 6.5625 1.875 C5.73878906 2.03742188 4.91507812 2.19984375 4.06640625 2.3671875 C3.38449219 2.57601563 2.70257813 2.78484375 2 3 C1.67 3.66 1.34 4.32 1 5 C0.34 5 -0.32 5 -1 5 C-1.21824777 11.0018137 -0.5056904 16.19233704 1 22 C0.01 22.33 -0.98 22.66 -2 23 C-3.62043498 16.92336881 -3.76070375 10.05067242 -2 4 C-1.34 4 -0.68 4 0 4 C0 2.68 0 1.36 0 0 Z " fill="#0F569C" transform="translate(253,331)"/>
<path d="M0 0 C0.9237463 3.11042698 1.0781003 5.82621889 1 9.0625 C0.9254869 12.15945057 1.00691998 14.02075995 2 17 C2.66 17.33 3.32 17.66 4 18 C4.8515625 20.06640625 4.8515625 20.06640625 5.625 22.5625 C5.88539063 23.38878906 6.14578125 24.21507812 6.4140625 25.06640625 C6.60742188 25.70449219 6.80078125 26.34257812 7 27 C6.34 27 5.68 27 5 27 C5 26.34 5 25.68 5 25 C4.34 25 3.68 25 3 25 C-2.05716899 17.41424652 -1.63295151 9.80943987 -1 1 C-0.67 0.67 -0.34 0.34 0 0 Z " fill="#105BA4" transform="translate(241,334)"/>
<path d="M0 0 C0.66 1.32 1.32 2.64 2 4 C0.68 4.33 -0.64 4.66 -2 5 C-2.103125 5.886875 -2.20625 6.77375 -2.3125 7.6875 C-3.01715907 11.0826755 -3.9554566 13.21942098 -6 16 C-6.66 16 -7.32 16 -8 16 C-8.33 16.99 -8.66 17.98 -9 19 C-9.33 18.34 -9.66 17.68 -10 17 C-7.61224594 10.7804692 -4.01322235 5.2745208 0 0 Z " fill="#0E4CB9" transform="translate(126,134)"/>
<path d="M0 0 C1.45922693 0.11409593 2.91740598 0.24165544 4.375 0.375 C5.59316406 0.47941406 5.59316406 0.47941406 6.8359375 0.5859375 C9 1 9 1 11 3 C12.64851615 3.55693113 14.3190267 4.05043737 16 4.5 C20.77777778 5.77777778 20.77777778 5.77777778 23 8 C14.48711911 7.70645238 7.59376349 4.53223423 0 1 C0 0.67 0 0.34 0 0 Z " fill="#1161A6" transform="translate(276,238)"/>
<path d="M0 0 C-1.67741664 3.96480297 -4.12126862 6.84041677 -7 10 C-7.99 10.33 -8.98 10.66 -10 11 C-10.33 11.66 -10.66 12.32 -11 13 C-11.33 13.66 -11.66 14.32 -12 15 C-12.99 15.33 -13.98 15.66 -15 16 C-13.25731793 12.03935893 -10.85325271 8.25563451 -8 5 C-7.34 5 -6.68 5 -6 5 C-6 4.34 -6 3.68 -6 3 C-2.53846154 0 -2.53846154 0 0 0 Z " fill="#0E63AD" transform="translate(276,125)"/>
<path d="M0 0 C-7.53148945 3.04294537 -13.9929447 3.36909992 -22.0625 3.1875 C-23.79016602 3.16719727 -23.79016602 3.16719727 -25.55273438 3.14648438 C-28.36898972 3.11142725 -31.18423765 3.06228856 -34 3 C-34 2.67 -34 2.34 -34 2 C-26.74 2 -19.48 2 -12 2 C-12 1.34 -12 0.68 -12 0 C-10.56359829 -0.19573608 -9.12580496 -0.38127816 -7.6875 -0.5625 C-6.88699219 -0.66691406 -6.08648437 -0.77132813 -5.26171875 -0.87890625 C-3 -1 -3 -1 0 0 Z " fill="#0F4DAD" transform="translate(142,361)"/>
<path d="M0 0 C0.33 0.99 0.66 1.98 1 3 C1.66 3 2.32 3 3 3 C3 3.66 3 4.32 3 5 C7.8333472 5.08333357 12.23692563 4.95261487 17 4 C14.375 7.875 14.375 7.875 11 9 C7.3749408 8.56148477 4.01903824 7.70058879 1 5.625 C0 4 0 4 0 0 Z " fill="#0E75C0" transform="translate(296,349)"/>
<path d="M0 0 C5.61 0 11.22 0 17 0 C17 0.66 17 1.32 17 2 C15.99839844 2.06058594 14.99679687 2.12117187 13.96484375 2.18359375 C12.62238669 2.26808405 11.27993928 2.35272768 9.9375 2.4375 C8.62652344 2.51871094 7.31554687 2.59992188 5.96484375 2.68359375 C2.26336762 2.97898249 -1.33370448 3.43265388 -5 4 C-5 3.34 -5 2.68 -5 2 C-3.35 2 -1.7 2 0 2 C0 1.34 0 0.68 0 0 Z " fill="#1362A4" transform="translate(309,137)"/>
<path d="M0 0 C0.66 0.33 1.32 0.66 2 1 C1.75 3.375 1.75 3.375 1 6 C-1.89810116 8.09862498 -3.28378861 8 -7 8 C-6.4376049 4.73810844 -5.5859495 3.08865152 -3 1 C-2.01 0.67 -1.02 0.34 0 0 Z " fill="#0A54D8" transform="translate(134,128)"/>
<path d="M0 0 C5.3490405 -0.39992826 9.07020372 0.93282021 13.875 3 C14.56335938 3.28617187 15.25171875 3.57234375 15.9609375 3.8671875 C17.64458078 4.56870553 19.3228668 5.28305756 21 6 C21 6.66 21 7.32 21 8 C19.35 8 17.7 8 16 8 C16 7.34 16 6.68 16 6 C15.01 6 14.02 6 13 6 C13 5.34 13 4.68 13 4 C11.02 4 9.04 4 7 4 C7 3.34 7 2.68 7 2 C4.69 2 2.38 2 0 2 C0 1.34 0 0.68 0 0 Z " fill="#1468A2" transform="translate(332,111)"/>
<path d="M0 0 C0.76763672 -0.01611328 1.53527344 -0.03222656 2.32617188 -0.04882812 C7.94887921 -0.05373022 7.94887921 -0.05373022 10.46484375 1.83203125 C10.94630859 2.56486328 10.94630859 2.56486328 11.4375 3.3125 C10.55707031 3.2403125 9.67664063 3.168125 8.76953125 3.09375 C7.02736328 2.95453125 7.02736328 2.95453125 5.25 2.8125 C4.10144531 2.7196875 2.95289063 2.626875 1.76953125 2.53125 C-1.02322426 2.3479038 -3.76569812 2.27036363 -6.5625 2.3125 C-6.5625 2.9725 -6.5625 3.6325 -6.5625 4.3125 C-8.5425 4.3125 -10.5225 4.3125 -12.5625 4.3125 C-12.5625 3.6525 -12.5625 2.9925 -12.5625 2.3125 C-8.61943086 -0.32672761 -4.56646254 -0.01926777 0 0 Z " fill="#115998" transform="translate(260.5625,321.6875)"/>
<path d="M0 0 C-0.79005662 1.43838552 -1.58211045 2.87567415 -2.375 4.3125 C-2.81585938 5.11300781 -3.25671875 5.91351563 -3.7109375 6.73828125 C-4.73513335 8.53527943 -5.85267138 10.27900708 -7 12 C-7.66 11.67 -8.32 11.34 -9 11 C-8.71890887 9.35232753 -8.42481474 7.70686855 -8.125 6.0625 C-7.96257812 5.14597656 -7.80015625 4.22945313 -7.6328125 3.28515625 C-7.42398437 2.53105469 -7.21515625 1.77695312 -7 1 C-4.53721199 -0.231394 -2.7204945 -0.07159196 0 0 Z " fill="#0C74BF" transform="translate(345,261)"/>
<path d="M0 0 C0.66 0.33 1.32 0.66 2 1 C1.67 1.66 1.34 2.32 1 3 C0.77760311 4.95643473 0.60784146 6.91897725 0.46484375 8.8828125 C0.37783203 10.04941406 0.29082031 11.21601563 0.20117188 12.41796875 C0.11416016 13.64128906 0.02714844 14.86460937 -0.0625 16.125 C-0.19881836 17.97158203 -0.19881836 17.97158203 -0.33789062 19.85546875 C-0.56235003 22.90339115 -0.78288542 25.95154703 -1 29 C-1.33 29 -1.66 29 -2 29 C-2.0578304 24.54172074 -2.09353855 20.0835372 -2.125 15.625 C-2.14175781 14.35398437 -2.15851563 13.08296875 -2.17578125 11.7734375 C-2.18222656 10.56171875 -2.18867188 9.35 -2.1953125 8.1015625 C-2.21102295 6.42054443 -2.21102295 6.42054443 -2.22705078 4.70556641 C-2 2 -2 2 0 0 Z " fill="#209DDD" transform="translate(366,334)"/>
<path d="M0 0 C8.43440131 0.26440129 15.37446149 1.29911788 23 5 C23 5.33 23 5.66 23 6 C21.35 6 19.7 6 18 6 C18 5.34 18 4.68 18 4 C16.80503906 3.90912109 16.80503906 3.90912109 15.5859375 3.81640625 C5.06151142 2.98418278 5.06151142 2.98418278 0 2 C0 1.34 0 0.68 0 0 Z " fill="#0E4C9B" transform="translate(186,110)"/>
<path d="M0 0 C0.33 0.66 0.66 1.32 1 2 C1.61875 2.144375 2.2375 2.28875 2.875 2.4375 C5.39658526 3.10497845 6.3855092 3.9818865 8 6 C8 6.66 8 7.32 8 8 C8.66 8 9.32 8 10 8 C9.67 8.66 9.34 9.32 9 10 C8.43152344 9.66226563 7.86304688 9.32453125 7.27734375 8.9765625 C2.56246952 6.25311261 -1.69613469 4.24133018 -7 3 C-7 2.67 -7 2.34 -7 2 C-4.69 2 -2.38 2 0 2 C0 1.34 0 0.68 0 0 Z " fill="#1374B7" transform="translate(333,137)"/>
<path d="M0 0 C-1.55701931 4.67105792 -4.08447373 8.08705685 -7 12 C-8.55938978 8.88122044 -8.3607834 6.42744229 -8 3 C-5.15739513 0.61835808 -3.71594733 0 0 0 Z " fill="#0B56B4" transform="translate(224,235)"/>
<path d="M0 0 C0.66 0 1.32 0 2 0 C0.42903279 5.02709507 -2.61993049 9.02866469 -6 13 C-6.33 13 -6.66 13 -7 13 C-7 10.69 -7 8.38 -7 6 C-6.01 6.33 -5.02 6.66 -4 7 C-3.67 5.35 -3.34 3.7 -3 2 C-2.01 2 -1.02 2 0 2 C0 1.34 0 0.68 0 0 Z " fill="#0C57B9" transform="translate(201,265)"/>
<path d="M0 0 C0.99 0.33 1.98 0.66 3 1 C3.6875 3.0625 3.6875 3.0625 4 5 C5.2065625 5.185625 5.2065625 5.185625 6.4375 5.375 C7.7059375 5.684375 7.7059375 5.684375 9 6 C9.33 6.66 9.66 7.32 10 8 C12.11846285 8.68729254 12.11846285 8.68729254 14.5625 9.125 C15.80193359 9.37636719 15.80193359 9.37636719 17.06640625 9.6328125 C17.70449219 9.75398438 18.34257812 9.87515625 19 10 C19 10.33 19 10.66 19 11 C13.51038453 11.33609891 9.82702374 10.68167985 5 8 C2.99526836 6.1063618 1.60308283 4.28317857 0 2 C0 1.34 0 0.68 0 0 Z " fill="#0D4E98" transform="translate(178,353)"/>
<path d="M0 0 C0.33 0 0.66 0 1 0 C2.22657444 7.77323077 1.82633445 13.63875604 -1 21 C-1.33 21 -1.66 21 -2 21 C-2.9765625 14.9453125 -2.9765625 14.9453125 -3 13 C-2.34 12.34 -1.68 11.68 -1 11 C-0.53709779 8.33757179 -0.53709779 8.33757179 -0.375 5.375 C-0.30023438 4.37210937 -0.22546875 3.36921875 -0.1484375 2.3359375 C-0.09945313 1.56507813 -0.05046875 0.79421875 0 0 Z " fill="#0E6DAC" transform="translate(323,335)"/>
<path d="M0 0 C3.3 0 6.6 0 10 0 C9.67 2.64 9.34 5.28 9 8 C8.195625 8.28875 7.39125 8.5775 6.5625 8.875 C3.8673532 9.73262568 3.8673532 9.73262568 3 12 C2.34 11.67 1.68 11.34 1 11 C2.98 8.03 4.96 5.06 7 2 C4.69 1.67 2.38 1.34 0 1 C0 0.67 0 0.34 0 0 Z " fill="#0C499F" transform="translate(171,247)"/>
<path d="M0 0 C7.35251669 0.53410863 14.67902003 1.13140916 22 2 C19.34165958 3.3625385 16.96608679 4.5056522 14 5 C13.34 4.67 12.68 4.34 12 4 C12 3.34 12 2.68 12 2 C10.741875 2 9.48375 2 8.1875 2 C5.79166667 2 3.39583333 2 1 2 C0.67 1.34 0.34 0.68 0 0 Z " fill="#038AF5" transform="translate(297,219)"/>
<path d="M0 0 C0.33 0 0.66 0 1 0 C0.5188509 5.77378925 -1.18467181 9.95859836 -4 15 C-5.27225439 11.18323682 -4.87700768 8.91280349 -4 5 C-2 2.0625 -2 2.0625 0 0 Z " fill="#127CB6" transform="translate(384,196)"/>
<path d="M0 0 C-1.51825726 3.13870491 -3.2129341 6.13166461 -5 9.125 C-5.515625 9.99382812 -6.03125 10.86265625 -6.5625 11.7578125 C-8 14 -8 14 -10 16 C-10.37169941 11.6635069 -9.31392722 9.60972647 -7 6 C-6.855625 5.278125 -6.71125 4.55625 -6.5625 3.8125 C-6 2 -6 2 -4.0625 0.75 C-2 0 -2 0 0 0 Z " fill="#0F5CA0" transform="translate(290,150)"/>
<path d="M0 0 C1.07310858 3.27185553 0.89263102 5.42947592 0.0625 8.75 C-0.22947266 9.94882813 -0.22947266 9.94882813 -0.52734375 11.171875 C-0.68332031 11.77515625 -0.83929688 12.3784375 -1 13 C-0.34 13.33 0.32 13.66 1 14 C0.67 14.99 0.34 15.98 0 17 C-2.74484058 13.58974353 -4.01423682 11.82573582 -3.9375 7.375 C-3.05057796 4.18208064 -2.21815738 2.41104063 0 0 Z " fill="#105AA0" transform="translate(260,141)"/>
<path d="M0 0 C0.99 0 1.98 0 3 0 C1.53400783 3.08779026 -0.17026393 5.90467205 -2.0625 8.75 C-2.85333984 9.94882813 -2.85333984 9.94882813 -3.66015625 11.171875 C-4.32337891 12.07679688 -4.32337891 12.07679688 -5 13 C-5.33 13 -5.66 13 -6 13 C-6.33 11.02 -6.66 9.04 -7 7 C-5.68 7 -4.36 7 -3 7 C-3 5.35 -3 3.7 -3 2 C-2.34 2 -1.68 2 -1 2 C-0.67 1.34 -0.34 0.68 0 0 Z " fill="#0C7EB9" transform="translate(368,224)"/>
<path d="M0 0 C1.65 0 3.3 0 5 0 C5 0.66 5 1.32 5 2 C1.22777911 3.75163456 -1.666639 4.22490027 -5.8125 4.125 C-7.27623047 4.09792969 -7.27623047 4.09792969 -8.76953125 4.0703125 C-9.50558594 4.04710937 -10.24164063 4.02390625 -11 4 C-11.33 3.34 -11.66 2.68 -12 2 C-8.04 2 -4.08 2 0 2 C0 1.34 0 0.68 0 0 Z " fill="#126CB1" transform="translate(310,361)"/>
<path d="M0 0 C0.70125 0.09023438 1.4025 0.18046875 2.125 0.2734375 C4 0.625 4 0.625 6 1.625 C6 5.255 6 8.885 6 12.625 C5.67 12.625 5.34 12.625 5 12.625 C4.75585938 9.59765625 4.75585938 9.59765625 4.51171875 6.5703125 C4.12606964 4.22980784 4.12606964 4.22980784 1 2.625 C-1.80127043 2.42002899 -3.47454232 2.36227116 -6 3.625 C-6 2.635 -6 1.645 -6 0.625 C-3.6150282 -0.5674859 -2.60431911 -0.354264 0 0 Z " fill="#1271A4" transform="translate(374,330.375)"/>
<path d="M0 0 C2.0625 2.25 2.0625 2.25 4 5 C3.875 7.25 3.875 7.25 3 9 C2.01 9.495 2.01 9.495 1 10 C0.59270772 12.32156597 0.25561323 14.6568787 0 17 C-0.33 17 -0.66 17 -1 17 C-1.10477512 11.21408489 -0.99250545 5.70690634 0 0 Z " fill="#0976DF" transform="translate(242,331)"/>
<path d="M0 0 C2.71546221 0.58672853 5.37871454 1.22931067 8.0625 1.9375 C9.20041992 2.23043945 9.20041992 2.23043945 10.36132812 2.52929688 C12.24223908 3.01431165 14.12129838 3.50649664 16 4 C16 4.33 16 4.66 16 5 C11.05 4.67 6.1 4.34 1 4 C1 3.34 1 2.68 1 2 C0.34 1.67 -0.32 1.34 -1 1 C-0.67 0.67 -0.34 0.34 0 0 Z " fill="#135F99" transform="translate(294,215)"/>
<path d="M0 0 C0.66 0 1.32 0 2 0 C1.01 2.97 0.02 5.94 -1 9 C-1.66 9 -2.32 9 -3 9 C-3.33 9.99 -3.66 10.98 -4 12 C-4.33 12 -4.66 12 -5 12 C-4.58894145 6.75900345 -3.75960806 3.75960806 0 0 Z " fill="#0A60BD" transform="translate(229,223)"/>
<path d="M0 0 C1.17949219 0.01804687 2.35898437 0.03609375 3.57421875 0.0546875 C4.92966797 0.08949219 4.92966797 0.08949219 6.3125 0.125 C6.6425 0.785 6.9725 1.445 7.3125 2.125 C6.48105469 2.09019531 5.64960938 2.05539062 4.79296875 2.01953125 C3.70628906 1.99246094 2.61960937 1.96539062 1.5 1.9375 C0.42105469 1.90269531 -0.65789062 1.86789062 -1.76953125 1.83203125 C-5.06102292 2.1625023 -5.62075207 2.70539267 -7.6875 5.125 C-10.375 5.3125 -10.375 5.3125 -12.6875 5.125 C-12.3575 4.135 -12.0275 3.145 -11.6875 2.125 C-11.0275 2.125 -10.3675 2.125 -9.6875 2.125 C-6.05554504 -0.29630331 -4.30400652 -0.08522785 0 0 Z " fill="#116EA3" transform="translate(352.6875,321.875)"/>
<path d="M0 0 C1.5 1.125 1.5 1.125 3 3 C3.1875 6.1875 3.1875 6.1875 3 9 C2.67 8.01 2.34 7.02 2 6 C1.34 6 0.68 6 0 6 C0.33 6.99 0.66 7.98 1 9 C0.01 9.33 -0.98 9.66 -2 10 C-2.1953125 3.9453125 -2.1953125 3.9453125 -2 2 C-1.34 1.34 -0.68 0.68 0 0 Z " fill="#025EF6" transform="translate(138,187)"/>
<path d="M0 0 C-2.84881728 2.17581687 -5.76084088 4.20937999 -8.75 6.1875 C-9.54921875 6.71730469 -10.3484375 7.24710938 -11.171875 7.79296875 C-11.77515625 8.19128906 -12.3784375 8.58960938 -13 9 C-13.33 7.68 -13.66 6.36 -14 5 C-12.02 4.67 -10.04 4.34 -8 4 C-8 3.01 -8 2.02 -8 1 C-5.07175348 0.02391783 -3.04386724 -0.08226668 0 0 Z " fill="#1067AC" transform="translate(304,141)"/>
<path d="M0 0 C1 3 1 3 0.3125 5.5625 C-1.16086774 8.29875437 -2.13522966 8.94958421 -5 10 C-5 10.66 -5 11.32 -5 12 C-5.66 12 -6.32 12 -7 12 C-5.44298069 7.32894208 -2.91552627 3.91294315 0 0 Z " fill="#0F6CB3" transform="translate(305,266)"/>
<path d="M0 0 C0.33 0 0.66 0 1 0 C1.31385643 8.16026711 1.31385643 8.16026711 -1 11 C-4.125 12.25 -4.125 12.25 -7 13 C-6.34 11.68 -5.68 10.36 -5 9 C-4.34 9 -3.68 9 -3 9 C-2.67 8.01 -2.34 7.02 -2 6 C-1.34 6 -0.68 6 0 6 C0 4.02 0 2.04 0 0 Z " fill="#106ECE" transform="translate(206,360)"/>
<path d="M0 0 C1.27230469 0.01804687 2.54460937 0.03609375 3.85546875 0.0546875 C5.31919922 0.08949219 5.31919922 0.08949219 6.8125 0.125 C6.8125 0.455 6.8125 0.785 6.8125 1.125 C3.8425 1.125 0.8725 1.125 -2.1875 1.125 C-2.5175 1.785 -2.8475 2.445 -3.1875 3.125 C-5.1875 3.45833333 -7.1875 3.79166667 -9.1875 4.125 C-9.5175 4.785 -9.8475 5.445 -10.1875 6.125 C-10.8475 6.125 -11.5075 6.125 -12.1875 6.125 C-9.55790225 0.0566975 -6.24824294 -0.11464666 0 0 Z " fill="#136F9F" transform="translate(377.1875,321.875)"/>
<path d="M0 0 C0.99 0.33 1.98 0.66 3 1 C0.69 4.63 -1.62 8.26 -4 12 C-4.66 11.67 -5.32 11.34 -6 11 C-5.625 9.0625 -5.625 9.0625 -5 7 C-4.34 6.67 -3.68 6.34 -3 6 C-2.835 5.175 -2.67 4.35 -2.5 3.5 C-2.335 2.675 -2.17 1.85 -2 1 C-1.34 0.67 -0.68 0.34 0 0 Z " fill="#0D67A0" transform="translate(359,237)"/>
<path d="M0 0 C2 0 2 0 3.625 1.375 C5 3 5 3 5 5 C5.99 5.33 6.98 5.66 8 6 C8.33333333 7.33333333 8.66666667 8.66666667 9 10 C9.99 10.33 10.98 10.66 12 11 C12 11.66 12 12.32 12 13 C11.34 13 10.68 13 10 13 C10 12.34 10 11.68 10 11 C9.34 11 8.68 11 8 11 C8 10.34 8 9.68 8 9 C7.01 8.67 6.02 8.34 5 8 C5 7.34 5 6.68 5 6 C4.34 6 3.68 6 3 6 C2.01 4.02 1.02 2.04 0 0 Z " fill="#115798" transform="translate(247,213)"/>
<path d="M0 0 C5 1.66666667 10 3.33333333 15 5 C15 5.33 15 5.66 15 6 C8.53673535 6.45356243 5.39068413 5.59378942 0 2 C0 1.34 0 0.68 0 0 Z " fill="#0D4AA1" transform="translate(158,212)"/>
<path d="M0 0 C-0.25 1.875 -0.25 1.875 -1 4 C-2.8125 5.3125 -2.8125 5.3125 -5 6 C-7.25 5.625 -7.25 5.625 -9 5 C-6.41680366 1.12520549 -4.65792984 0 0 0 Z " fill="#0C54C4" transform="translate(153,115)"/>
<path d="M0 0 C1.98 0 3.96 0 6 0 C6.6796875 1.7734375 6.6796875 1.7734375 7 4 C5.8203125 5.8515625 5.8203125 5.8515625 4.125 7.625 C1.77069571 10.10631269 1.77069571 10.10631269 0 13 C-0.66 12.67 -1.32 12.34 -2 12 C0.31 8.37 2.62 4.74 5 1 C3.35 1 1.7 1 0 1 C0 0.67 0 0.34 0 0 Z " fill="#1068A7" transform="translate(312,247)"/>
<path d="M0 0 C4.55105375 0.54179211 8.06386006 1.62000841 12 4 C12.33 4.99 12.66 5.98 13 7 C8.1725201 5.58707905 4.2837641 3.57025846 0 1 C0 0.67 0 0.34 0 0 Z " fill="#0D4FAE" transform="translate(142,236)"/>
<path d="M0 0 C2 0 2 0 3.5 1.4375 C3.995 1.953125 4.49 2.46875 5 3 C5.66 3.33 6.32 3.66 7 4 C7 4.99 7 5.98 7 7 C7.66 7 8.32 7 9 7 C9.33 8.65 9.66 10.3 10 12 C5.58380857 8.84557755 2.95753693 5.47855592 0 1 C0 0.67 0 0.34 0 0 Z " fill="#0D3FA0" transform="translate(122,216)"/>
<path d="M0 0 C0.99 0.33 1.98 0.66 3 1 C3 1.99 3 2.98 3 4 C4.32 4.66 5.64 5.32 7 6 C7 8.31 7 10.62 7 13 C0 4.25 0 4.25 0 0 Z " fill="#10529B" transform="translate(238,198)"/>
<path d="M0 0 C2.9934377 0.33260419 4.7494744 0.81389527 7.1875 2.625 C9.45350405 5.59424668 10.16646671 8.38802241 11 12 C9.62437146 10.71034824 8.29233607 9.37310707 7 8 C7 7.34 7 6.68 7 6 C6.34 6 5.68 6 5 6 C3.2856382 4.04072937 1.61594832 2.04119788 0 0 Z " fill="#1375AB" transform="translate(343,147)"/>
<path d="M0 0 C2.64 1.65 5.28 3.3 8 5 C5.07735566 6.46132217 3.07536854 7.34099246 0 8 C0 7.34 0 6.68 0 6 C0.66 5.67 1.32 5.34 2 5 C1.01 4.01 0.02 3.02 -1 2 C-0.67 1.34 -0.34 0.68 0 0 Z " fill="#0B6BBB" transform="translate(277,204)"/>
<path d="M0 0 C2.4375 0.75 2.4375 0.75 5 2 C5.8125 4.125 5.8125 4.125 6 6 C6.66 6 7.32 6 8 6 C7.67 8.64 7.34 11.28 7 14 C6.67 14 6.34 14 6 14 C5.7525 12.80375 5.505 11.6075 5.25 10.375 C4.22617481 6.20550902 2.56321852 3.4176247 0 0 Z " fill="#0F47A0" transform="translate(135,321)"/>
<path d="M0 0 C11.70615034 -0.55353075 11.70615034 -0.55353075 16 3 C15.67 3.66 15.34 4.32 15 5 C14.01 5 13.02 5 12 5 C12 4.34 12 3.68 12 3 C6.06 2.01 6.06 2.01 0 1 C0 0.67 0 0.34 0 0 Z " fill="#0E6AA8" transform="translate(301,322)"/>
<path d="M0 0 C2.64 0 5.28 0 8 0 C8 0.66 8 1.32 8 2 C10.31 2.33 12.62 2.66 15 3 C15 3.33 15 3.66 15 4 C4.44191344 3.22095672 4.44191344 3.22095672 0 1 C0 0.67 0 0.34 0 0 Z " fill="#0D48A2" transform="translate(156,243)"/>
<path d="M0 0 C2.6486859 3.19668988 4.93992341 6.39486597 7 10 C6.01 10 5.02 10 4 10 C4 9.34 4 8.68 4 8 C2.35 7.67 0.7 7.34 -1 7 C-0.67 4.69 -0.34 2.38 0 0 Z " fill="#0C64B6" transform="translate(268,192)"/>
<path d="M0 0 C6.875 1.875 6.875 1.875 8 3 C8.04080783 4.99958364 8.04254356 7.00045254 8 9 C7.34 9 6.68 9 6 9 C5.67 7.35 5.34 5.7 5 4 C4.360625 3.896875 3.72125 3.79375 3.0625 3.6875 C2.381875 3.460625 1.70125 3.23375 1 3 C0.67 2.01 0.34 1.02 0 0 Z " fill="#0779E2" transform="translate(267,169)"/>
<path d="M0 0 C0.99 0.66 1.98 1.32 3 2 C1.68 2.33 0.36 2.66 -1 3 C-0.67 3.99 -0.34 4.98 0 6 C-0.4375 8.6875 -0.4375 8.6875 -1 11 C-1.66 11 -2.32 11 -3 11 C-4.10493755 7.68518735 -4.05432279 5.33868884 -3 2 C-2.01 1.34 -1.02 0.68 0 0 Z " fill="#0461F5" transform="translate(148,145)"/>
<path d="M0 0 C3.16213488 0.49408357 6.20413783 1.28036402 9.25 2.25 C9.93578125 2.46140625 10.6215625 2.6728125 11.328125 2.890625 C13 4 13 4 13.734375 6.609375 C13.82203125 7.39828125 13.9096875 8.1871875 14 9 C13.32453125 8.59007812 12.6490625 8.18015625 11.953125 7.7578125 C11.06109375 7.21898437 10.1690625 6.68015625 9.25 6.125 C8.36828125 5.59132812 7.4865625 5.05765625 6.578125 4.5078125 C4.41725907 3.24403334 2.25429605 2.08501165 0 1 C0 0.67 0 0.34 0 0 Z " fill="#1255AE" transform="translate(193,140)"/>
<path d="M0 0 C0 0.66 0 1.32 0 2 C0.66 2.33 1.32 2.66 2 3 C1.01 3.495 1.01 3.495 0 4 C-0.99 3.67 -1.98 3.34 -3 3 C-5.05893621 2.77674186 -7.12233653 2.59294241 -9.1875 2.4375 C-10.81751953 2.31181641 -10.81751953 2.31181641 -12.48046875 2.18359375 C-13.31191406 2.12300781 -14.14335937 2.06242188 -15 2 C-15 1.67 -15 1.34 -15 1 C-9.92928099 0.28832014 -5.11791642 -0.10662326 0 0 Z " fill="#0D4196" transform="translate(191,137)"/>
<path d="M0 0 C5.01113235 1.4317521 6.94469549 3.98445693 10 8 C5.25 7.125 5.25 7.125 3 6 C1 3 1 3 0 0 Z " fill="#0B60B6" transform="translate(221,124)"/>
<path d="M0 0 C0.33 0.99 0.66 1.98 1 3 C0.00390625 4.82421875 0.00390625 4.82421875 -1.4375 6.6875 C-1.91058594 7.31011719 -2.38367188 7.93273437 -2.87109375 8.57421875 C-3.24363281 9.04472656 -3.61617188 9.51523437 -4 10 C-4.99 9.67 -5.98 9.34 -7 9 C-6 7 -5 5 -4 3 C-3.01 3 -2.02 3 -1 3 C-0.67 2.01 -0.34 1.02 0 0 Z " fill="#0B7ED2" transform="translate(313,257)"/>
<path d="M0 0 C0.66 0 1.32 0 2 0 C2.309375 0.804375 2.61875 1.60875 2.9375 2.4375 C3.76335345 4.89080405 3.76335345 4.89080405 5 6 C5.23287008 7.68183948 5.41264166 9.3712416 5.5625 11.0625 C5.64628906 11.98160156 5.73007812 12.90070313 5.81640625 13.84765625 C5.87699219 14.55792969 5.93757813 15.26820313 6 16 C5.34 16.33 4.68 16.66 4 17 C3.81824219 15.98679688 3.81824219 15.98679688 3.6328125 14.953125 C3.46523438 14.06109375 3.29765625 13.1690625 3.125 12.25 C2.96257812 11.36828125 2.80015625 10.4865625 2.6328125 9.578125 C2.10278118 7.00834917 2.10278118 7.00834917 0.9296875 4.859375 C0 3 0 3 0 0 Z " fill="#136FA8" transform="translate(354,159)"/>
<path d="M0 0 C0.96661363 3.12180401 0.98988909 5.52083795 0.5625 8.75 C0.40974609 9.94882813 0.40974609 9.94882813 0.25390625 11.171875 C0.12822266 12.07679688 0.12822266 12.07679688 0 13 C-0.99 13.33 -1.98 13.66 -3 14 C-2.58846263 9.02906176 -2.20399168 4.55491614 0 0 Z " fill="#0D43A5" transform="translate(115,153)"/>
<path d="M0 0 C1.17949219 0.01804687 2.35898438 0.03609375 3.57421875 0.0546875 C4.92966797 0.08949219 4.92966797 0.08949219 6.3125 0.125 C5.9825 0.785 5.6525 1.445 5.3125 2.125 C3.0546875 2.50390625 3.0546875 2.50390625 0.1875 2.6875 C-4.1489141 3.00410911 -8.39266085 3.45691391 -12.6875 4.125 C-7.87693477 0.91795651 -5.81595808 -0.11516749 0 0 Z " fill="#0851D8" transform="translate(180.6875,108.875)"/>
<path d="M0 0 C0.99 0 1.98 0 3 0 C1.44298069 4.67105792 -1.08447373 8.08705685 -4 12 C-4.33 10.68 -4.66 9.36 -5 8 C-4.34 8 -3.68 8 -3 8 C-2.67 6.68 -2.34 5.36 -2 4 C-1.34 4 -0.68 4 0 4 C0 2.68 0 1.36 0 0 Z " fill="#1570A7" transform="translate(376,212)"/>
<path d="M0 0 C0.66 0 1.32 0 2 0 C2.66 0.66 3.32 1.32 4 2 C4.99 2.33 5.98 2.66 7 3 C7 6 7 6 6 8 C5.01 7.67 4.02 7.34 3 7 C3 6.34 3 5.68 3 5 C2.34 5 1.68 5 1 5 C0.67 3.35 0.34 1.7 0 0 Z " fill="#055BF0" transform="translate(121,211)"/>
<path d="M0 0 C0.99 0 1.98 0 3 0 C3.76173392 4.3164922 4.16063604 7.74433453 3 12 C0.97649676 8.96474514 0.67875982 7.80573798 0.375 4.3125 C0.30023438 3.50425781 0.22546875 2.69601563 0.1484375 1.86328125 C0.09945312 1.24839844 0.05046875 0.63351563 0 0 Z " fill="#0358F0" transform="translate(113,186)"/>
<path d="M0 0 C2.63744638 1.31872319 3.20619668 2.8111975 4.625 5.375 C5.07101563 6.16648438 5.51703125 6.95796875 5.9765625 7.7734375 C7 10 7 10 7 13 C5.109375 12.3515625 5.109375 12.3515625 3 11 C1.953125 8.3984375 1.953125 8.3984375 1.25 5.375 C1.00765625 4.37210938 0.7653125 3.36921875 0.515625 2.3359375 C0.34546875 1.56507813 0.1753125 0.79421875 0 0 Z " fill="#10529C" transform="translate(250,162)"/>
<path d="M0 0 C3.3309303 -0.37010337 4.62731223 -0.27461204 7.375 1.75 C9 4 9 4 8.75 6.25 C8.5025 6.8275 8.255 7.405 8 8 C7.01 7.34 6.02 6.68 5 6 C5 4.68 5 3.36 5 2 C3.35 1.67 1.7 1.34 0 1 C0 0.67 0 0.34 0 0 Z " fill="#1791C5" transform="translate(380,323)"/>
<path d="M0 0 C2.375 0.1875 2.375 0.1875 5 1 C6.3125 3.5625 6.3125 3.5625 7 6 C6.01 6.495 6.01 6.495 5 7 C4.67 6.34 4.34 5.68 4 5 C1.98330173 3.86649466 1.98330173 3.86649466 0 3 C0 2.01 0 1.02 0 0 Z " fill="#0B68D1" transform="translate(220,195)"/>
<path d="M0 0 C0.99 0 1.98 0 3 0 C3.70226141 1.24176695 4.38629109 2.49385599 5.0625 3.75 C5.44535156 4.44609375 5.82820312 5.1421875 6.22265625 5.859375 C7 8 7 8 6 12 C4.02 8.04 2.04 4.08 0 0 Z " fill="#0D539F" transform="translate(213,156)"/>
<path d="M0 0 C0.33 0 0.66 0 1 0 C1.33 1.98 1.66 3.96 2 6 C-4.28571429 8.42857143 -4.28571429 8.42857143 -8 7 C-7.236875 6.5875 -6.47375 6.175 -5.6875 5.75 C-3.05519766 4.03594266 -1.7575987 2.54851812 0 0 Z " fill="#0D4FAE" transform="translate(140,345)"/>
<path d="M0 0 C1.65322266 0.01740234 1.65322266 0.01740234 3.33984375 0.03515625 C4.99693359 0.04869141 4.99693359 0.04869141 6.6875 0.0625 C7.54214844 0.07410156 8.39679688 0.08570313 9.27734375 0.09765625 C9.27734375 0.42765625 9.27734375 0.75765625 9.27734375 1.09765625 C8.16359375 1.40703125 7.04984375 1.71640625 5.90234375 2.03515625 C2.48282825 2.92092108 2.48282825 2.92092108 0.27734375 4.09765625 C0.27734375 3.43765625 0.27734375 2.77765625 0.27734375 2.09765625 C-0.38265625 2.09765625 -1.04265625 2.09765625 -1.72265625 2.09765625 C-2.05265625 3.08765625 -2.38265625 4.07765625 -2.72265625 5.09765625 C-3.28515625 3.16015625 -3.28515625 3.16015625 -3.72265625 1.09765625 C-2.72265625 0.09765625 -2.72265625 0.09765625 0 0 Z " fill="#0676BE" transform="translate(341.72265625,330.90234375)"/>
<path d="M0 0 C3.63 0 7.26 0 11 0 C10.67 0.99 10.34 1.98 10 3 C6.7 3 3.4 3 0 3 C0 2.01 0 1.02 0 0 Z " fill="#1863AD" transform="translate(205,322)"/>
<path d="M0 0 C0.99 0.33 1.98 0.66 3 1 C3.25 3.3125 3.25 3.3125 3 6 C1 7.8125 1 7.8125 -1 9 C-1.07427838 5.65747276 -1.06546953 3.1964086 0 0 Z " fill="#0A59BD" transform="translate(204,256)"/>
<path d="M0 0 C1.14926266 0.95421808 2.29430541 1.91352045 3.4375 2.875 C4.07558594 3.40867188 4.71367187 3.94234375 5.37109375 4.4921875 C7 6 7 6 8 8 C2.25 6.25 2.25 6.25 0 4 C0 2.68 0 1.36 0 0 Z " fill="#106EA5" transform="translate(363,125)"/>
<path d="M0 0 C3.63 0 7.26 0 11 0 C11 2.31 11 4.62 11 7 C10.484375 6.195625 9.96875 5.39125 9.4375 4.5625 C6.36794243 1.33552922 4.35131541 1.25103743 0 1 C0 0.67 0 0.34 0 0 Z " fill="#084F9F" transform="translate(193,331)"/>
<path d="M0 0 C2.64 0.99 5.28 1.98 8 3 C8 3.66 8 4.32 8 5 C8.66 5 9.32 5 10 5 C10 5.66 10 6.32 10 7 C6.4124787 5.66749209 3.1635377 4.169283 0 2 C0 1.34 0 0.68 0 0 Z " fill="#0E55B5" transform="translate(136,310)"/>
<path d="M0 0 C0.33 0.66 0.66 1.32 1 2 C1.99 2 2.98 2 4 2 C4 2.66 4 3.32 4 4 C5.32 4.33 6.64 4.66 8 5 C8 5.66 8 6.32 8 7 C4.51329166 5.8905928 1.22515763 4.73662334 -2 3 C-1 1 -1 1 0 0 Z " fill="#1064B0" transform="translate(268,231)"/>
<path d="M0 0 C1.32 0.33 2.64 0.66 4 1 C2.515 3.475 2.515 3.475 1 6 C-0.98 5.34 -2.96 4.68 -5 4 C-2 2 -2 2 0 2 C0 1.34 0 0.68 0 0 Z " fill="#036BF3" transform="translate(194,217)"/>
<path d="M0 0 C3.3 0.33 6.6 0.66 10 1 C10 1.33 10 1.66 10 2 C8.081875 2.4640625 8.081875 2.4640625 6.125 2.9375 C3.89898325 3.47605244 2.05260001 3.9737 0 5 C-0.66 4.34 -1.32 3.68 -2 3 C-1.34 2.01 -0.68 1.02 0 0 Z " fill="#0664EF" transform="translate(163,217)"/>
<path d="M0 0 C-3.69172595 3.53790403 -7.09390595 3.59115883 -12 4 C-4.78350515 -2.39175258 -4.78350515 -2.39175258 0 0 Z " fill="#107DBE" transform="translate(344,213)"/>
<path d="M0 0 C1.78821774 2.68232661 3.20142604 5.30288961 4.625 8.1875 C5.07101563 9.08855469 5.51703125 9.98960937 5.9765625 10.91796875 C6.31429687 11.60503906 6.65203125 12.29210937 7 13 C6.34 13 5.68 13 5 13 C5 12.34 5 11.68 5 11 C4.01 11 3.02 11 2 11 C0.80712589 7.12315913 0 4.08378077 0 0 Z " fill="#0B4599" transform="translate(142,191)"/>
<path d="M0 0 C0.99 0 1.98 0 3 0 C3.33 1.32 3.66 2.64 4 4 C2.68 3.67 1.36 3.34 0 3 C0 4.32 0 5.64 0 7 C-1.98 7.99 -1.98 7.99 -4 9 C-2.80100302 5.9168649 -1.52299523 2.93720508 0 0 Z " fill="#155199" transform="translate(220,192)"/>
<path d="M0 0 C2 1 2 1 4 3 C4.36933645 5.75372909 4.18336678 8.20365661 4 11 C1.73030256 8.73030256 1.00868171 7.02604513 0 4 C0 2.68 0 1.36 0 0 Z " fill="#0D6ED9" transform="translate(224,170)"/>
<path d="M0 0 C0.25 2.25 0.25 2.25 0 5 C-2 7.3125 -2 7.3125 -4 9 C-4 6.36 -4 3.72 -4 1 C-1 0 -1 0 0 0 Z " fill="#0955C9" transform="translate(151,147)"/>
<path d="M0 0 C0.66 1.32 1.32 2.64 2 4 C0.68 4.33 -0.64 4.66 -2 5 C-2 6.32 -2 7.64 -2 9 C-2.99 9 -3.98 9 -5 9 C-3.7508258 5.54074837 -2.32472205 2.85306797 0 0 Z " fill="#0C49AD" transform="translate(126,134)"/>
<path d="M0 0 C0.99 0.495 0.99 0.495 2 1 C1.01 1.495 1.01 1.495 0 2 C0 1.34 0 0.68 0 0 Z M-7 2 C-4.69 2 -2.38 2 0 2 C-0.33 3.32 -0.66 4.64 -1 6 C-2.98 5.34 -4.96 4.68 -7 4 C-7 3.34 -7 2.68 -7 2 Z " fill="#0462F3" transform="translate(160,113)"/>
<path d="M0 0 C0.99 0.33 1.98 0.66 3 1 C1.68 3.31 0.36 5.62 -1 8 C-1.99 7.01 -2.98 6.02 -4 5 C-3.01 5 -2.02 5 -1 5 C-1.33 3.68 -1.66 2.36 -2 1 C-1.34 0.67 -0.68 0.34 0 0 Z " fill="#0E76BA" transform="translate(333,273)"/>
<path d="M0 0 C0 3 0 3 -1 6 C-3.5625 7.6875 -3.5625 7.6875 -6 9 C-5.67 7.35 -5.34 5.7 -5 4 C-4.34 4 -3.68 4 -3 4 C-2.67 3.01 -2.34 2.02 -2 1 C-1.34 0.67 -0.68 0.34 0 0 Z " fill="#0868EE" transform="translate(177,255)"/>
<path d="M0 0 C3.63 0.33 7.26 0.66 11 1 C11 1.66 11 2.32 11 3 C5.71910976 3.30466674 4.422832 3.317124 0 0 Z " fill="#0C8AE8" transform="translate(295,243)"/>
<path d="M0 0 C1.45945288 0.08708669 2.91765868 0.19526907 4.375 0.3125 C5.59316406 0.39951172 5.59316406 0.39951172 6.8359375 0.48828125 C9 1 9 1 11 4 C6.44262737 3.56179109 3.42346555 3.14958831 0 0 Z " fill="#1376C3" transform="translate(276,238)"/>
<path d="M0 0 C0.66 0 1.32 0 2 0 C2 0.66 2 1.32 2 2 C2.66 2.33 3.32 2.66 4 3 C5.6875 4.875 5.6875 4.875 7 7 C6.67 7.99 6.34 8.98 6 10 C3.25722422 6.80009492 1.3697164 3.99500618 0 0 Z " fill="#0C549D" transform="translate(261,159)"/>
<path d="M0 0 C2.58949269 1.29474635 2.96035764 2.32663393 4 5 C4.125 7.75 4.125 7.75 4 10 C2 8.375 2 8.375 0 6 C-0.25 2.75 -0.25 2.75 0 0 Z " fill="#127AA7" transform="translate(381,150)"/>
<path d="M0 0 C1.85776765 3.13498292 2.20140476 5.37471432 2 9 C-2.875 4.25 -2.875 4.25 -4 2 C-2.68 2 -1.36 2 0 2 C0 1.34 0 0.68 0 0 Z " fill="#0A54AE" transform="translate(211,147)"/>
<path d="M0 0 C4.24822374 0.47202486 6.19989709 2.96655518 9 6 C5.7 5.01 2.4 4.02 -1 3 C-0.67 2.01 -0.34 1.02 0 0 Z " fill="#1176B0" transform="translate(353,119)"/>
<path d="M0 0 C2.97 0.33 5.94 0.66 9 1 C9 1.66 9 2.32 9 3 C10.65 3 12.3 3 14 3 C14 3.33 14 3.66 14 4 C12.02 4 10.04 4 8 4 C8 3.34 8 2.68 8 2 C5.69 2.33 3.38 2.66 1 3 C0.67 2.01 0.34 1.02 0 0 Z " fill="#096CEC" transform="translate(195,113)"/>
<path d="M0 0 C3.63 0.66 7.26 1.32 11 2 C11 2.66 11 3.32 11 4 C9.54119891 3.85892253 8.08296449 3.71197585 6.625 3.5625 C5.40683594 3.44068359 5.40683594 3.44068359 4.1640625 3.31640625 C2 3 2 3 0 2 C0 1.34 0 0.68 0 0 Z " fill="#0E58AA" transform="translate(188,369)"/>
<path d="M0 0 C2 2 2 2 2 6 C0.02 6 -1.96 6 -4 6 C-2.68 4.02 -1.36 2.04 0 0 Z " fill="#0067FC" transform="translate(165,273)"/>
<path d="M0 0 C-0.33 2.97 -0.66 5.94 -1 9 C-1.66 9 -2.32 9 -3 9 C-3.6875 6.1875 -3.6875 6.1875 -4 3 C-1.8 0 -1.8 0 0 0 Z " fill="#08A0F0" transform="translate(380,203)"/>
<path d="M0 0 C0.99 0 1.98 0 3 0 C3.33 2.31 3.66 4.62 4 7 C4.99 7.33 5.98 7.66 7 8 C6.34 8.66 5.68 9.32 5 10 C5 9.34 5 8.68 5 8 C4.34 8 3.68 8 3 8 C0 2.25 0 2.25 0 0 Z " fill="#0C529F" transform="translate(228,181)"/>
<path d="M0 0 C0.33 0 0.66 0 1 0 C1.39253254 4.44870215 0.15305957 7.14243493 -2 11 C-2.95465783 8.83032311 -3.14401212 7.43671207 -2.3984375 5.17578125 C-1.64129615 3.4315257 -0.82390802 1.71372869 0 0 Z " fill="#0658EB" transform="translate(118,150)"/>
<path d="M0 0 C1.875 0.3125 1.875 0.3125 4 1 C6.67927341 5.01891012 6.15601248 7.24161923 6 12 C5.67 12 5.34 12 5 12 C5 10.02 5 8.04 5 6 C4.34 6 3.68 6 3 6 C3 4.68 3 3.36 3 2 C2.01 1.67 1.02 1.34 0 1 C0 0.67 0 0.34 0 0 Z " fill="#1176AD" transform="translate(351,332)"/>
<path d="M0 0 C0.33 0.66 0.66 1.32 1 2 C0.06421005 4.35981813 -0.93347808 6.69631264 -2 9 C-2.99 9 -3.98 9 -5 9 C-3.7508258 5.54074837 -2.32472205 2.85306797 0 0 Z " fill="#1150AB" transform="translate(165,268)"/>
<path d="M0 0 C1.9375 0.75 1.9375 0.75 4 2 C4.625 4.0625 4.625 4.0625 5 6 C5.66 6.33 6.32 6.66 7 7 C6.01 7 5.02 7 4 7 C0 2.65714286 0 2.65714286 0 0 Z " fill="#0F67A5" transform="translate(286,353)"/>
<path d="M0 0 C2.52588702 2.36292656 3.88820837 3.66462511 5 7 C2 7 2 7 0 6 C0 4.02 0 2.04 0 0 Z " fill="#147BC3" transform="translate(318,327)"/>
<path d="M0 0 C1 3 1 3 0.3125 5.625 C-1 8 -1 8 -3.125 8.8125 C-3.74375 8.874375 -4.3625 8.93625 -5 9 C-5 8.34 -5 7.68 -5 7 C-4.34 7 -3.68 7 -3 7 C-2.690625 6.030625 -2.38125 5.06125 -2.0625 4.0625 C-1 1 -1 1 0 0 Z " fill="#0F699E" transform="translate(355,194)"/>
<path d="M0 0 C-0.99 1.485 -0.99 1.485 -2 3 C-4.4375 2.625 -4.4375 2.625 -7 2 C-7.33 1.34 -7.66 0.68 -8 0 C-4.71023192 -1.09658936 -3.28696233 -0.79953138 0 0 Z " fill="#0763EC" transform="translate(168,138)"/>
<path d="M0 0 C0.66 0.33 1.32 0.66 2 1 C1.34 4.3 0.68 7.6 0 11 C-0.33 11 -0.66 11 -1 11 C-1.22174933 9.54364629 -1.42698698 8.08477044 -1.625 6.625 C-1.74101562 5.81289063 -1.85703125 5.00078125 -1.9765625 4.1640625 C-1.98429687 3.44992187 -1.99203125 2.73578125 -2 2 C-1.34 1.34 -0.68 0.68 0 0 Z " fill="#0D74A9" transform="translate(366,334)"/>
<path d="M0 0 C1.22589844 0.01353516 1.22589844 0.01353516 2.4765625 0.02734375 C3.41628906 0.04474609 3.41628906 0.04474609 4.375 0.0625 C4.375 0.3925 4.375 0.7225 4.375 1.0625 C2.725 1.0625 1.075 1.0625 -0.625 1.0625 C-0.625 1.7225 -0.625 2.3825 -0.625 3.0625 C-2.605 3.0625 -4.585 3.0625 -6.625 3.0625 C-6.625 2.4025 -6.625 1.7425 -6.625 1.0625 C-4.21954362 -0.14022819 -2.67503047 -0.03821472 0 0 Z " fill="#1069BE" transform="translate(254.625,322.9375)"/>
<path d="M0 0 C2.875 -0.1875 2.875 -0.1875 6 0 C6.66 0.99 7.32 1.98 8 3 C7.01 3.33 6.02 3.66 5 4 C5 3.34 5 2.68 5 2 C3.02 2 1.04 2 -1 2 C-0.67 1.34 -0.34 0.68 0 0 Z " fill="#0E3E84" transform="translate(162,307)"/>
<path d="M0 0 C1 3 1 3 -0.4375 6.1875 C-1.2109375 7.5796875 -1.2109375 7.5796875 -2 9 C-2.33 9 -2.66 9 -3 9 C-3 7.02 -3 5.04 -3 3 C-2.34 3 -1.68 3 -1 3 C-0.67 2.01 -0.34 1.02 0 0 Z " fill="#127CC1" transform="translate(353,245)"/>
<path d="M0 0 C0.99 0.33 1.98 0.66 3 1 C2 4 2 4 0 5 C-2.125 4.0625 -2.125 4.0625 -4 3 C-2.1875 1.4375 -2.1875 1.4375 0 0 Z " fill="#0A75D6" transform="translate(267,228)"/>
<path d="M0 0 C4 4.625 4 4.625 4 8 C2.68 7.34 1.36 6.68 0 6 C0 4.02 0 2.04 0 0 Z " fill="#1068BC" transform="translate(263,184)"/>
<path d="M0 0 C0.99 0.33 1.98 0.66 3 1 C3 2.32 3 3.64 3 5 C1.35 5.33 -0.3 5.66 -2 6 C-1.34 5.67 -0.68 5.34 0 5 C0 3.35 0 1.7 0 0 Z " fill="#085BCB" transform="translate(142,354)"/>
<path d="M0 0 C0.99 0.33 1.98 0.66 3 1 C1.02 3.97 1.02 3.97 -1 7 C-1.66 6.34 -2.32 5.68 -3 5 C-3 4.01 -3 3.02 -3 2 C-2.01 2 -1.02 2 0 2 C0 1.34 0 0.68 0 0 Z " fill="#0C50B2" transform="translate(190,331)"/>
<path d="M0 0 C0.78375 0.04125 1.5675 0.0825 2.375 0.125 C1.199375 0.99125 1.199375 0.99125 0 1.875 C-2.42547244 3.95397637 -3.48194417 5.21540333 -4.625 8.125 C-4.75 5.25 -4.75 5.25 -4.625 2.125 C-2.625 0.125 -2.625 0.125 0 0 Z " fill="#0A76E9" transform="translate(228.625,308.875)"/>
<path d="M0 0 C5.66153846 1.47692308 5.66153846 1.47692308 7.375 4.125 C7.684375 5.053125 7.684375 5.053125 8 6 C5.525 5.01 5.525 5.01 3 4 C3 3.34 3 2.68 3 2 C2.01 1.67 1.02 1.34 0 1 C0 0.67 0 0.34 0 0 Z " fill="#0B4195" transform="translate(134,230)"/>
<path d="M0 0 C-0.66 1.65 -1.32 3.3 -2 5 C-2.33 4.34 -2.66 3.68 -3 3 C-3.99 2.67 -4.98 2.34 -6 2 C-6 1.34 -6 0.68 -6 0 C-2.25 -1.125 -2.25 -1.125 0 0 Z " fill="#0792F5" transform="translate(338,217)"/>
<path d="M0 0 C1.67542976 0.28604898 3.34385343 0.61781233 5 1 C5.33 1.99 5.66 2.98 6 4 C4.35 4 2.7 4 1 4 C1 3.34 1 2.68 1 2 C0.34 1.67 -0.32 1.34 -1 1 C-0.67 0.67 -0.34 0.34 0 0 Z " fill="#0E75C2" transform="translate(294,215)"/>
<path d="M0 0 C2.79872437 2.52788007 4.45773019 4.20411134 5 8 C2 7 2 7 0 4 C0 2.68 0 1.36 0 0 Z " fill="#135AA3" transform="translate(258,176)"/>
<path d="M0 0 C0.99 0.33 1.98 0.66 3 1 C1.68 3.31 0.36 5.62 -1 8 C-2.2077558 4.37673261 -1.54311128 3.35853631 0 0 Z " fill="#0B46A1" transform="translate(144,156)"/>
<path d="M0 0 C1.65 0.33 3.3 0.66 5 1 C4.67 2.32 4.34 3.64 4 5 C2.35 4.67 0.7 4.34 -1 4 C-0.67 2.68 -0.34 1.36 0 0 Z " fill="#026EF7" transform="translate(210,145)"/>
<path d="M0 0 C0.99 0.66 1.98 1.32 3 2 C2.67 2.66 2.34 3.32 2 4 C2.66 4 3.32 4 4 4 C4 4.66 4 5.32 4 6 C1.33333333 4.66666667 -1.33333333 3.33333333 -4 2 C-2.68 2 -1.36 2 0 2 C0 1.34 0 0.68 0 0 Z " fill="#086CEF" transform="translate(197,137)"/>
<path d="M0 0 C2.38564077 0.57584432 4.66682784 1.22227595 7 2 C6.67 3.32 6.34 4.64 6 6 C3.97945196 4.35830472 1.97956942 2.69088222 0 1 C0 0.67 0 0.34 0 0 Z " fill="#0C9DEC" transform="translate(356,123)"/>
</svg>
